<svg width="154" height="51" viewBox="0 0 154 51" fill="none" xmlns="http://www.w3.org/2000/svg">
<mask id="mask0_30_1151" style="mask-type:luminance" maskUnits="userSpaceOnUse" x="0" y="10" width="154" height="30">
<path d="M154 10H0V39.2972H154V10Z" fill="white"/>
</mask>
<g mask="url(#mask0_30_1151)">
<path d="M15.1295 23.7151L8.16929 32.3593L4.96808 28.4401L0.219238 34.2954V37.9197L4.59842 32.6098L8.05511 37.0991C8.12905 37.0095 15.3661 28.1904 15.3661 28.1904L22.8274 39.0788H25.7098L22.1636 34.2043L25.3615 30.3434L31.3467 39.0788H33.1752V17.0038L20.9446 31.4877L15.1295 23.7151Z" fill="#CCAE75"/>
<path d="M0.219238 10.2194V31.5279L4.96397 25.6775L8.16108 29.5926L15.1706 20.8835L21.0103 28.6914L33.1752 14.2913V10.2194H0.219238ZM6.61345 14.1697H4.27312V15.452H6.61345V16.5865H4.27312V18.1505H6.61345V19.2849H2.93826V13.0443H6.61345V14.1697ZM13.0767 18.581C12.5419 19.1609 11.851 19.4509 11.005 19.4509C10.0356 19.4509 9.23637 19.142 8.60877 18.5235C7.98035 17.9057 7.66656 17.1204 7.66656 16.1683C7.66656 15.2253 7.982 14.4449 8.61288 13.8288C9.24375 13.2119 10.0414 12.9031 11.005 12.9031C11.5134 12.9031 11.9792 13.0098 12.4031 13.2234C12.8261 13.4362 13.2048 13.7541 13.5367 14.178L12.6372 14.8433C12.4129 14.564 12.1772 14.3636 11.9299 14.2396C11.6827 14.1163 11.3968 14.0547 11.0731 14.0547C10.4562 14.0547 9.96335 14.2461 9.5937 14.6298C9.22404 15.0134 9.03921 15.5268 9.03921 16.1683C9.03921 16.7992 9.22487 17.3085 9.59534 17.6971C9.96665 18.0848 10.4505 18.2787 11.0477 18.2787C11.4847 18.2787 11.8404 18.176 12.1131 17.9698C12.3858 17.7636 12.5222 17.4942 12.5222 17.1615V17.0933H11.0222V15.9942H13.8653C13.8709 16.0303 13.8743 16.0706 13.876 16.1133C13.8781 16.156 13.8785 16.2209 13.8785 16.3096C13.8785 17.2445 13.6106 18.0018 13.0767 18.581ZM17.9193 19.2948L16.8965 18.0544L15.9042 19.2948H14.5776L16.8933 16.4493L19.2139 19.2948H17.9193ZM16.8933 15.903L14.5751 13.0764H15.8697L16.8916 14.2954L17.8872 13.0764H19.2155L16.8933 15.903Z" fill="#CCAE75"/>
<path d="M153.541 27.5471H151.982V34.7274H153.541V27.5471ZM150.357 34.0472C150.68 33.6587 150.847 33.1683 150.847 32.5785V27.5586H149.288V32.1439C149.288 32.8676 149.02 33.2356 148.497 33.2356H145.993C146.115 32.8898 146.182 32.5226 146.182 32.1111V29.6845H144.612V32.1669C144.612 32.8791 144.345 33.2356 143.821 33.2356H137.264V32.222C137.264 30.7417 136.217 29.673 134.792 29.673C133.312 29.673 132.265 30.6858 132.265 32.1891C132.265 33.6694 133.334 34.7266 134.792 34.7266C135.315 34.7266 135.627 34.7044 135.75 34.6601C135.627 35.0938 135.271 35.3164 134.67 35.3164H134.537V36.5634H134.703C136.217 36.5634 137.063 35.9514 137.242 34.7266H148.82C149.477 34.7266 149.989 34.5048 150.357 34.0472ZM135.705 33.2356H134.804C134.224 33.2356 133.846 32.7567 133.846 32.1218C133.846 31.5319 134.158 31.0752 134.748 31.0752C135.315 31.0752 135.705 31.4983 135.705 32.1554V33.2356ZM130.439 35.9177C130.962 35.4618 131.219 34.7266 131.219 33.7031V29.6845H129.649V33.8361C129.649 34.8161 129.137 35.3057 128.112 35.3057V36.5634C129.181 36.5634 129.96 36.3523 130.439 35.9177ZM126.943 34.7266C126.977 34.3816 126.999 34.0366 126.999 33.7031C126.999 31.1869 125.93 29.6623 123.937 29.6623C122.69 29.6623 121.388 30.4189 120.397 31.6987V30.2184H118.839V32.1669C118.839 32.9679 118.56 33.2356 118.048 33.2356H103.174C102.417 33.2356 102.038 32.8348 102.038 32.0996V28.5936C100.057 28.5936 99.0661 28.5936 99.0661 28.6043C97.5965 28.6043 96.7611 29.673 96.7611 31.3315C96.7611 32.8676 97.6187 34.0259 98.9544 34.0259C99.7224 34.0259 100.257 33.7918 100.536 33.358C100.891 34.2707 101.515 34.7266 102.405 34.7266H126.943ZM100.435 31.2091C100.435 32.1218 100.035 32.7346 99.3774 32.7346C98.7539 32.7346 98.3087 32.0889 98.3087 31.3093C98.3087 30.4411 98.7761 29.7404 99.4111 29.7404H100.435V31.2091ZM125.373 33.0352L125.362 33.2356H120.798C121.655 31.7661 122.679 31.0202 123.826 31.0202C124.806 31.0202 125.373 31.8885 125.373 33.0352ZM100.101 27.5586H101.482V26.2672H100.101V27.5586ZM98.008 27.5586H99.3889V26.2672H98.008V27.5586ZM92.0525 34.7266H93.6108V27.5471H92.0525V34.7266ZM90.4268 34.0472C90.7497 33.6587 90.9164 33.1683 90.9164 32.5785V27.5586H89.3581V32.1439C89.3581 32.8676 89.0903 33.2356 88.567 33.2356H86.6966C86.6966 31.5993 85.7166 30.6308 84.0917 30.6308C82.4776 30.6308 81.5641 31.6322 81.5641 33.2356H79.393C79.2484 30.9536 78.1797 29.6623 76.3536 29.6623C75.1075 29.6623 73.8153 30.4074 72.8353 31.6543V30.2184H71.2779V32.1669C71.2779 32.9679 70.9986 33.2356 70.4868 33.2356H63.6178V29.6845H62.048V33.8361C62.048 34.8161 61.5362 35.3057 60.5118 35.3057V36.5634C62.2813 36.5634 63.2843 35.9514 63.5397 34.7266H82.0209C82.4883 35.3616 83.1898 35.6844 84.1361 35.6844C85.0602 35.6844 85.7618 35.3616 86.2185 34.7266H88.8907C89.547 34.7266 90.0588 34.5048 90.4268 34.0472ZM77.7789 33.0352L77.7681 33.2356H73.2033C74.0609 31.7661 75.0844 31.0202 76.2312 31.0202C77.2112 31.0202 77.7789 31.8885 77.7789 33.0352ZM85.1489 33.202C85.1489 33.9479 84.7711 34.4153 84.1361 34.4153C83.4789 34.4153 83.101 33.8805 83.101 33.1346C83.101 32.4117 83.4789 31.877 84.0474 31.877H84.159C84.8153 31.877 85.1489 32.3222 85.1489 33.202ZM59.0973 34.0472C59.4201 33.6587 59.5877 33.1683 59.5877 32.5785V29.6845H58.0293V32.1439C58.0293 32.8676 57.7616 33.2356 57.2383 33.2356H42.5309C41.7744 33.2356 41.3957 32.8348 41.3957 32.0996V28.5936C39.4143 28.5936 38.4237 28.5936 38.4237 28.6043C36.9541 28.6043 36.1187 29.673 36.1187 31.3315C36.1187 32.8676 36.9763 34.0259 38.3119 34.0259C39.08 34.0259 39.6148 33.7918 39.8933 33.358C40.2489 34.2707 40.8724 34.7266 41.7629 34.7266H57.5726C58.2183 34.7266 58.7301 34.5047 59.0973 34.0472ZM39.7922 31.2091C39.7922 32.1218 39.3922 32.7346 38.735 32.7346C38.1115 32.7346 37.6663 32.0889 37.6663 31.3093C37.6663 30.4411 38.1337 29.7404 38.7679 29.7404H39.7922V31.2091ZM39.4587 27.5586H40.8396V26.2672H39.4587V27.5586ZM37.3656 27.5586H38.7457V26.2672H37.3656V27.5586ZM57.3829 35.2835H56.0028V36.5749H57.3829V35.2835ZM59.4874 35.2835H58.0959V36.5749H59.4874V35.2835ZM146.025 35.2835H144.645V36.5749H146.025V35.2835Z" fill="#211E1E"/>
<path d="M153.781 18.5431V18.3599C153.781 17.9294 153.72 17.5425 153.598 17.1992C153.476 16.855 153.299 16.5642 153.068 16.3268C152.837 16.0894 152.553 15.9078 152.219 15.7821C151.886 15.6573 151.509 15.594 151.092 15.594C150.668 15.594 150.287 15.6573 149.95 15.7821C149.613 15.9078 149.325 16.0861 149.088 16.3169C148.849 16.5486 148.666 16.8295 148.538 17.1606C148.41 17.4916 148.346 17.8621 148.346 18.2736C148.346 18.672 148.413 19.0318 148.548 19.3522C148.683 19.6742 148.874 19.9502 149.121 20.181C149.369 20.4127 149.666 20.591 150.013 20.7158C150.359 20.8415 150.742 20.9039 151.159 20.9039C152.521 20.9039 153.373 20.3388 153.713 19.2076H152.027C151.834 19.5165 151.549 19.6709 151.169 19.6709C150.462 19.6709 150.109 19.2947 150.109 18.5431H153.781ZM152.153 17.531H150.157C150.202 17.2747 150.31 17.0751 150.48 16.9338C150.65 16.7925 150.87 16.7219 151.141 16.7219C151.398 16.7219 151.615 16.7958 151.796 16.9437C151.975 17.0916 152.094 17.2871 152.153 17.531ZM147.304 21.1257C147.337 20.9072 147.353 20.66 147.353 20.3839V15.7772H145.609V16.298C145.21 15.861 144.718 15.6425 144.134 15.6425C143.774 15.6425 143.442 15.7115 143.137 15.8503C142.832 15.9883 142.568 16.1773 142.346 16.418C142.124 16.6595 141.949 16.942 141.821 17.2665C141.693 17.591 141.628 17.9426 141.628 18.3213C141.628 18.6942 141.687 19.0327 141.807 19.3382C141.925 19.643 142.092 19.905 142.307 20.1235C142.523 20.3421 142.778 20.5121 143.074 20.6345C143.37 20.7561 143.694 20.8177 144.047 20.8177C144.208 20.8177 144.355 20.8062 144.491 20.784C144.626 20.761 144.754 20.724 144.876 20.6731C144.999 20.6213 145.118 20.5556 145.238 20.4751C145.357 20.3946 145.48 20.2936 145.609 20.172V20.6435C145.609 21.0099 145.51 21.2958 145.315 21.5019C145.118 21.7073 144.838 21.81 144.471 21.81C144.041 21.81 143.765 21.6457 143.642 21.3188H141.677C141.728 21.5882 141.831 21.8371 141.985 22.0655C142.139 22.293 142.337 22.4926 142.578 22.6627C142.818 22.8327 143.099 22.9666 143.421 23.0627C143.743 23.1588 144.096 23.2073 144.481 23.2073C144.822 23.2073 145.138 23.1687 145.43 23.0915C145.723 23.0142 145.984 22.9083 146.216 22.7736C146.448 22.6388 146.645 22.4795 146.808 22.2963C146.972 22.1131 147.092 21.916 147.17 21.704C147.228 21.5365 147.272 21.3442 147.304 21.1257ZM145.695 18.235C145.695 18.3886 145.665 18.5348 145.604 18.6737C145.542 18.8117 145.463 18.9316 145.363 19.0343C145.263 19.1378 145.145 19.2175 145.007 19.275C144.868 19.3333 144.722 19.3621 144.568 19.3621C144.407 19.3621 144.258 19.3333 144.12 19.275C143.982 19.2175 143.862 19.1378 143.763 19.0343C143.664 18.9316 143.585 18.8117 143.526 18.6737C143.469 18.5348 143.44 18.3862 143.44 18.2252C143.44 18.0707 143.471 17.9261 143.532 17.7914C143.593 17.6567 143.674 17.5392 143.778 17.4398C143.881 17.3404 143.999 17.2599 144.134 17.1992C144.269 17.1384 144.414 17.1072 144.568 17.1072C144.715 17.1072 144.858 17.1359 144.997 17.1942C145.135 17.2517 145.255 17.3322 145.358 17.4349C145.461 17.5376 145.542 17.6567 145.604 17.7914C145.665 17.9261 145.695 18.074 145.695 18.235ZM138.891 20.7207H140.636V17.5795C140.636 17.3158 140.61 17.0817 140.559 16.8763C140.507 16.6701 140.411 16.4845 140.269 16.3169C140.096 16.1116 139.886 15.953 139.639 15.8405C139.391 15.7279 139.094 15.6713 138.746 15.6713C138.419 15.6713 138.134 15.7214 137.89 15.8208C137.645 15.921 137.404 16.1148 137.167 16.404V15.7772H135.422V20.7207H137.167V18.0806C137.167 17.7528 137.245 17.5006 137.403 17.324C137.56 17.1474 137.786 17.0595 138.082 17.0595C138.191 17.0595 138.294 17.0751 138.391 17.1072C138.487 17.1392 138.573 17.1942 138.65 17.2714C138.741 17.361 138.803 17.4817 138.838 17.6329C138.874 17.7832 138.891 17.9812 138.891 18.2252V20.7207ZM132.483 20.7207H134.237V15.7772H132.483V16.2693C132.078 15.8388 131.567 15.6236 130.951 15.6236C130.584 15.6236 130.25 15.6926 129.948 15.8306C129.646 15.9686 129.386 16.1567 129.167 16.3941C128.949 16.6324 128.779 16.91 128.656 17.2279C128.535 17.5458 128.473 17.8818 128.473 18.235C128.473 18.6137 128.537 18.9645 128.661 19.2857C128.786 19.606 128.961 19.8861 129.186 20.1235C129.411 20.3609 129.675 20.5466 129.977 20.678C130.279 20.8095 130.61 20.8752 130.97 20.8752C131.605 20.8752 132.11 20.6402 132.483 20.172V20.7207ZM132.54 18.2539C132.54 18.4083 132.51 18.5529 132.449 18.6876C132.388 18.8224 132.308 18.9415 132.208 19.0442C132.108 19.1468 131.989 19.2273 131.851 19.2857C131.713 19.3432 131.567 19.3719 131.413 19.3719C131.252 19.3719 131.103 19.3432 130.965 19.2857C130.827 19.2273 130.708 19.1468 130.608 19.0442C130.508 18.9415 130.43 18.8215 130.372 18.6827C130.314 18.5447 130.285 18.3952 130.285 18.235C130.285 18.0806 130.314 17.9376 130.372 17.8062C130.43 17.6748 130.508 17.5573 130.608 17.4546C130.708 17.3511 130.827 17.2714 130.965 17.2131C131.103 17.1556 131.252 17.1269 131.413 17.1269C131.567 17.1269 131.713 17.1556 131.851 17.2131C131.989 17.2714 132.108 17.3511 132.208 17.4546C132.308 17.5573 132.388 17.6772 132.449 17.8153C132.51 17.9541 132.54 18.0995 132.54 18.2539ZM125.736 20.7207H127.481V17.5795C127.481 16.9954 127.322 16.5305 127.004 16.1871C126.686 15.8438 126.215 15.6713 125.592 15.6713C125.264 15.6713 124.978 15.7214 124.734 15.8208C124.49 15.921 124.249 16.1148 124.011 16.404V12.723H122.267V20.7207H124.011V18.0806C124.011 17.7528 124.09 17.5006 124.248 17.324C124.405 17.1474 124.631 17.0595 124.927 17.0595C125.146 17.0595 125.332 17.1269 125.486 17.2616C125.576 17.3454 125.64 17.4637 125.679 17.6181C125.717 17.7725 125.736 17.9746 125.736 18.2252V20.7207ZM120.051 20.8752C120.436 20.8752 120.844 20.7824 121.275 20.5959V19.1115C120.991 19.3366 120.687 19.4491 120.359 19.4491C120.192 19.4491 120.034 19.4204 119.887 19.3621C119.739 19.3046 119.612 19.2224 119.506 19.1164C119.4 19.0105 119.317 18.8856 119.256 18.741C119.194 18.5965 119.164 18.4371 119.164 18.2638C119.164 18.0839 119.194 17.922 119.256 17.7766C119.317 17.6329 119.402 17.5072 119.511 17.4012C119.62 17.2953 119.747 17.2131 119.892 17.1556C120.036 17.0981 120.192 17.0685 120.359 17.0685C120.667 17.0685 120.973 17.1712 121.275 17.3774V15.893C120.915 15.7131 120.522 15.6236 120.099 15.6236C119.713 15.6236 119.352 15.6893 119.015 15.8208C118.677 15.953 118.387 16.1354 118.143 16.3703C117.898 16.6052 117.706 16.8845 117.564 17.209C117.423 17.5327 117.352 17.8916 117.352 18.2827C117.352 18.6753 117.426 19.0294 117.573 19.3481C117.721 19.666 117.919 19.9387 118.166 20.1671C118.414 20.3946 118.7 20.5704 119.024 20.692C119.349 20.8144 119.69 20.8752 120.051 20.8752ZM116.947 20.7207L114.471 18.042L116.523 15.7772H114.249L113.381 16.7991L112.534 15.7772H110.259L112.263 18.042L109.797 20.7207H112.1L113.372 19.2561L114.634 20.7207H116.947ZM105.064 20.7207H109.199V19.1214H106.954V17.8686H109.074V16.2693H106.954V15.0552H109.199V13.455H105.064V20.7207ZM98.6947 20.7207H100.439V17.5795C100.439 17.3158 100.413 17.0817 100.361 16.8763C100.31 16.6701 100.214 16.4845 100.072 16.3169C99.8989 16.1116 99.6886 15.953 99.4414 15.8405C99.1941 15.7279 98.8968 15.6713 98.5501 15.6713C98.2223 15.6713 97.9365 15.7214 97.6925 15.8208C97.4477 15.921 97.207 16.1148 96.9696 16.404V15.7772H95.2249V20.7207H96.9696V18.0806C96.9696 17.7528 97.0477 17.5006 97.2054 17.324C97.3631 17.1474 97.589 17.0595 97.8847 17.0595C97.994 17.0595 98.0967 17.0751 98.1936 17.1072C98.2897 17.1392 98.376 17.1942 98.4532 17.2714C98.5435 17.361 98.606 17.4817 98.6413 17.6329C98.6766 17.7832 98.6947 17.9812 98.6947 18.2252V20.7207ZM92.2857 20.7207H94.0395V15.7772H92.2857V16.2693C91.8807 15.8388 91.3706 15.6236 90.7528 15.6236C90.3873 15.6236 90.053 15.6926 89.7507 15.8306C89.4484 15.9686 89.1888 16.1567 88.9703 16.3941C88.7518 16.6324 88.5817 16.91 88.4593 17.2279C88.3377 17.5458 88.2762 17.8818 88.2762 18.235C88.2762 18.6137 88.3394 18.9645 88.4643 19.2857C88.59 19.606 88.7649 19.8861 88.9892 20.1235C89.2143 20.3609 89.4779 20.5466 89.7802 20.678C90.0817 20.8095 90.4119 20.8752 90.7726 20.8752C91.4084 20.8752 91.9127 20.6402 92.2857 20.172V20.7207ZM92.3432 18.2539C92.3432 18.4083 92.3128 18.5529 92.252 18.6876C92.1904 18.8224 92.1107 18.9415 92.0113 19.0442C91.9111 19.1468 91.7928 19.2273 91.654 19.2857C91.516 19.3432 91.3706 19.3719 91.2161 19.3719C91.0551 19.3719 90.9056 19.3432 90.7676 19.2857C90.6296 19.2273 90.5105 19.1468 90.4111 19.0442C90.3117 18.9415 90.2329 18.8215 90.1745 18.6827C90.117 18.5447 90.0883 18.3952 90.0883 18.235C90.0883 18.0806 90.117 17.9376 90.1745 17.8062C90.2329 17.6748 90.3117 17.5573 90.4111 17.4546C90.5105 17.3511 90.6296 17.2714 90.7676 17.2131C90.9056 17.1556 91.0551 17.1269 91.2161 17.1269C91.3706 17.1269 91.516 17.1556 91.654 17.2131C91.7928 17.2714 91.9111 17.3511 92.0113 17.4546C92.1107 17.5573 92.1904 17.6772 92.252 17.8153C92.3128 17.9541 92.3432 18.0995 92.3432 18.2539ZM87.3027 14.26C87.3545 14.1409 87.3799 14.0144 87.3799 13.8797C87.3799 13.7441 87.3545 13.6176 87.3027 13.4985C87.2518 13.3794 87.1811 13.2759 87.0908 13.1855C87.0012 13.0952 86.8969 13.0253 86.7778 12.9736C86.6587 12.9218 86.5322 12.8964 86.3975 12.8964C86.2619 12.8964 86.1354 12.9218 86.0163 12.9736C85.8972 13.0253 85.7929 13.0952 85.7034 13.1855C85.613 13.2759 85.5423 13.3794 85.4914 13.4985C85.4397 13.6176 85.4142 13.7441 85.4142 13.8797C85.4142 14.0144 85.4397 14.1409 85.4914 14.26C85.5423 14.3791 85.613 14.4834 85.7034 14.573C85.7929 14.6633 85.8972 14.734 86.0163 14.7849C86.1354 14.8367 86.2619 14.8621 86.3975 14.8621C86.5322 14.8621 86.6587 14.8367 86.7778 14.7849C86.8969 14.734 87.0012 14.6633 87.0908 14.573C87.1811 14.4834 87.2518 14.3791 87.3027 14.26ZM83.8822 17.2328H84.8745V15.7772H83.8822V14.2937H82.1374V15.7772H81.5591V17.2328H82.1374V20.7207H83.8822V17.2328ZM80.7549 19.2857C80.8798 18.9702 80.943 18.6301 80.943 18.2638C80.943 17.8974 80.8798 17.554 80.7549 17.2328C80.6292 16.9117 80.4543 16.6324 80.2292 16.3941C80.0049 16.1567 79.7396 15.9686 79.434 15.8306C79.1292 15.6926 78.7998 15.6236 78.4466 15.6236C77.8034 15.6236 77.2957 15.8577 76.9236 16.3268V15.7772H75.1797V23.1876H76.9236V20.2394C77.3352 20.6632 77.8486 20.8752 78.4655 20.8752C78.8187 20.8752 79.1465 20.8078 79.4488 20.6731C79.7511 20.5376 80.0123 20.3519 80.2341 20.1137C80.4559 19.8763 80.6292 19.6003 80.7549 19.2857ZM79.121 18.2638C79.121 18.4116 79.0906 18.5529 79.0298 18.6876C78.9682 18.8224 78.8877 18.9415 78.7883 19.0442C78.6889 19.1468 78.5715 19.2273 78.4367 19.2857C78.302 19.3432 78.1575 19.3719 78.003 19.3719C77.8486 19.3719 77.7024 19.3415 77.5652 19.2799C77.4263 19.2191 77.3056 19.1394 77.2029 19.0392C77.1002 18.9398 77.0197 18.8224 76.9622 18.6876C76.9047 18.5529 76.8752 18.4083 76.8752 18.2539C76.8752 18.0995 76.9064 17.9541 76.9672 17.8153C77.028 17.6772 77.1084 17.5573 77.2079 17.4546C77.3072 17.3511 77.4247 17.2714 77.5603 17.2131C77.695 17.1556 77.8387 17.1269 77.9932 17.1269C78.1542 17.1269 78.3037 17.1573 78.4417 17.2181C78.5797 17.2797 78.7004 17.361 78.8031 17.4637C78.9058 17.5664 78.9847 17.6871 79.0389 17.8251C79.0939 17.9631 79.121 18.1093 79.121 18.2638ZM70.6116 23.1876L74.5825 15.7772H72.5773L71.2958 18.3122L69.9758 15.7772H67.9517L70.3421 20.0463L68.6548 23.1876H70.6116ZM67.3151 21.1257C67.3471 20.9072 67.3635 20.66 67.3635 20.3839V15.7772H65.6196V16.298C65.2212 15.861 64.7291 15.6425 64.1442 15.6425C63.7844 15.6425 63.4526 15.7115 63.147 15.8503C62.8422 15.9883 62.5785 16.1773 62.3567 16.418C62.1349 16.6595 61.96 16.942 61.831 17.2665C61.7029 17.591 61.6388 17.9426 61.6388 18.3213C61.6388 18.6942 61.6979 19.0327 61.817 19.3382C61.9362 19.643 62.1029 19.905 62.3181 20.1235C62.5333 20.3421 62.7888 20.5121 63.0846 20.6345C63.3803 20.7561 63.7048 20.8177 64.058 20.8177C64.2182 20.8177 64.366 20.8062 64.5016 20.784C64.6363 20.761 64.7644 20.724 64.8868 20.6731C65.0084 20.6213 65.1292 20.5556 65.2483 20.4751C65.3666 20.3946 65.4906 20.2936 65.6196 20.172V20.6435C65.6196 21.0099 65.521 21.2958 65.3255 21.5019C65.1292 21.7073 64.8482 21.81 64.4819 21.81C64.0514 21.81 63.7754 21.6457 63.653 21.3188H61.6873C61.7382 21.5882 61.8409 21.8371 61.9953 22.0655C62.1497 22.293 62.3469 22.4926 62.5884 22.6627C62.8291 22.8327 63.11 22.9666 63.4312 23.0627C63.7532 23.1588 64.1065 23.2073 64.4917 23.2073C64.8318 23.2073 65.1489 23.1687 65.4405 23.0915C65.7329 23.0142 65.995 22.9083 66.2266 22.7736C66.4575 22.6388 66.6554 22.4795 66.8189 22.2963C66.9832 22.1131 67.1031 21.916 67.1803 21.704C67.2386 21.5365 67.283 21.3442 67.3151 21.1257ZM65.7058 18.235C65.7058 18.3886 65.6754 18.5348 65.6146 18.6737C65.553 18.8117 65.4734 18.9316 65.3731 19.0343C65.2737 19.1378 65.1546 19.2175 65.0166 19.275C64.8786 19.3333 64.7324 19.3621 64.578 19.3621C64.4178 19.3621 64.2683 19.3333 64.1303 19.275C63.9914 19.2175 63.8732 19.1378 63.7738 19.0343C63.6736 18.9316 63.5955 18.8117 63.5372 18.6737C63.4797 18.5348 63.4509 18.3862 63.4509 18.2252C63.4509 18.0707 63.4813 17.9261 63.5429 17.7914C63.6037 17.6567 63.685 17.5392 63.7885 17.4398C63.8912 17.3404 64.0095 17.2599 64.1442 17.1992C64.2798 17.1384 64.4243 17.1072 64.578 17.1072C64.7258 17.1072 64.8688 17.1359 65.0076 17.1942C65.1456 17.2517 65.2655 17.3322 65.3682 17.4349C65.4717 17.5376 65.553 17.6567 65.6146 17.7914C65.6754 17.9261 65.7058 18.074 65.7058 18.235ZM56.5022 20.7207H60.6366V19.1214H58.3916V17.8686H60.5118V16.2693H58.3916V15.0552H60.6366V13.455H56.5022V20.7207ZM48.3977 18.5431H52.0696V18.3599C52.0696 17.9294 52.008 17.5425 51.8865 17.1992C51.7641 16.855 51.5874 16.5642 51.3558 16.3268C51.125 16.0894 50.8424 15.9078 50.5081 15.7821C50.1737 15.6573 49.7983 15.594 49.3802 15.594C48.9563 15.594 48.576 15.6573 48.2384 15.7821C47.9016 15.9078 47.6132 16.0861 47.3758 16.3169C47.1384 16.5486 46.9553 16.8295 46.8263 17.1606C46.6981 17.4916 46.6341 17.8621 46.6341 18.2736C46.6341 18.672 46.7014 19.0318 46.8361 19.3522C46.9717 19.6742 47.1623 19.9502 47.4095 20.181C47.6568 20.4127 47.9542 20.591 48.3008 20.7158C48.6483 20.8415 49.0303 20.9039 49.4484 20.9039C50.8103 20.9039 51.6614 20.3388 52.0023 19.2076H50.315C50.1228 19.5165 49.8369 19.6709 49.4574 19.6709C48.751 19.6709 48.3977 19.2947 48.3977 18.5431ZM48.4462 17.531C48.4906 17.2747 48.5982 17.0751 48.7682 16.9338C48.9383 16.7925 49.1592 16.7219 49.4287 16.7219C49.6858 16.7219 49.9043 16.7958 50.0842 16.9437C50.2633 17.0916 50.3832 17.2871 50.4407 17.531H48.4462ZM43.897 20.7207H45.6418V17.5795C45.6418 16.9954 45.4824 16.5305 45.1645 16.1871C44.8457 15.8438 44.3751 15.6713 43.7524 15.6713C43.4246 15.6713 43.1388 15.7214 42.8948 15.8208C42.6508 15.921 42.4093 16.1148 42.1719 16.404V12.723H40.4271V20.7207H42.1719V18.0806C42.1719 17.7528 42.2508 17.5006 42.4077 17.324C42.5654 17.1474 42.7921 17.0595 43.087 17.0595C43.3055 17.0595 43.492 17.1269 43.6464 17.2616C43.736 17.3454 43.8009 17.4637 43.8395 17.6181C43.8773 17.7725 43.897 17.9746 43.897 18.2252V20.7207ZM38.201 15.0552H39.7527V13.455H34.7607V15.0552H36.3125V20.7207H38.201V15.0552ZM87.274 15.7772H85.53V20.7207H87.274V15.7772Z" fill="#211E1E"/>
</g>
</svg>
