<svg width="154" height="51" viewBox="0 0 154 51" fill="none" xmlns="http://www.w3.org/2000/svg">
<g clip-path="url(#clip0_30_1031)">
<mask id="mask0_30_1031" style="mask-type:luminance" maskUnits="userSpaceOnUse" x="0" y="0" width="154" height="51">
<path d="M154 0H0V51H154V0Z" fill="white"/>
</mask>
<g mask="url(#mask0_30_1031)">
<path d="M75.3712 0.676154C70.3006 0.994499 65.3363 2.91872 61.3634 6.10925C56.6752 9.8728 53.5096 15.1219 52.3978 20.9724C52.0933 22.5924 52.0083 23.6182 52.0083 25.6061C52.0083 28.1104 52.1995 29.6739 52.7802 31.9023C54.579 38.8068 59.3592 44.7068 65.7187 47.8974C70.3714 50.2248 75.4491 51.0596 80.5409 50.3239C88.5504 49.1707 95.5685 44.155 99.2369 36.9534C100.625 34.2227 101.432 31.5698 101.836 28.4005C101.963 27.403 101.963 23.8092 101.836 22.8118C101.255 18.2276 99.6547 14.2094 97.0061 10.6793C92.5375 4.72268 85.8452 1.12184 78.381 0.66908C77.085 0.591262 76.7096 0.591262 75.3712 0.676154ZM80.116 1.40481C82.4034 1.73023 84.5209 2.31032 86.518 3.15925C89.5915 4.46092 92.5941 6.57615 94.8532 9.0168C100.257 14.8673 102.452 22.6844 100.894 30.5228C100.682 31.5981 100.179 33.2889 99.7609 34.3642C97.8843 39.1676 94.6054 43.2 90.2784 46.0368C87.2403 48.0247 83.7915 49.2981 80.0806 49.8004C78.9333 49.956 76.221 50.0197 74.9675 49.9136C68.9905 49.4113 63.4879 46.7725 59.3167 42.4148C52.8369 35.6517 50.8256 25.783 54.1328 16.9896C54.3099 16.5156 54.7419 15.5535 55.0818 14.8531C56.3565 12.2781 57.9216 10.1204 59.9753 8.13251C63.9624 4.26992 68.8418 1.97783 74.4364 1.34114C75.5766 1.20673 79.0112 1.24917 80.116 1.40481Z" fill="#663494"/>
<path d="M75.64 3.88091C75.2576 4.0507 75.1726 4.26293 75.208 4.95621C75.2363 5.47971 75.2647 5.57875 75.4134 5.73439C75.7604 6.08103 76.4827 5.99614 76.6739 5.57875C76.7802 5.33115 76.7731 4.53175 76.6527 4.2417C76.4969 3.87384 76.0437 3.71113 75.64 3.88091ZM76.2703 4.25585C76.4473 4.41149 76.4544 5.36652 76.2774 5.56461C76.1286 5.73439 75.8666 5.72731 75.6896 5.55046C75.5692 5.43019 75.5479 5.317 75.5479 4.85717C75.5479 4.52468 75.5833 4.27 75.6329 4.22048C75.7533 4.10022 76.1145 4.11437 76.2703 4.25585Z" fill="#663494"/>
<path d="M77.9916 3.85248C77.8004 3.92323 77.6941 4.05764 77.6375 4.29817C77.595 4.46795 77.6092 4.48917 77.765 4.48917C77.8924 4.48917 77.9562 4.43965 77.9845 4.31232C78.0341 4.11423 78.3386 4.00104 78.5156 4.11423C78.5794 4.15668 78.636 4.28402 78.6502 4.39721C78.6785 4.65896 78.4802 4.91363 77.9278 5.30272C77.418 5.67059 77.4109 5.79793 77.9066 5.8616C78.1049 5.88282 78.4236 5.90404 78.6148 5.90404C78.8981 5.90404 78.9476 5.88282 78.9476 5.76256C78.9476 5.63522 78.8981 5.62107 78.5156 5.62107H78.0766L78.551 5.17539C78.9618 4.7863 79.0184 4.7014 79.0184 4.47503C79.0184 4.12131 78.9618 4.00812 78.7281 3.88785C78.5086 3.77467 78.2182 3.76052 77.9916 3.85248Z" fill="#663494"/>
<path d="M73.3102 4.12846C73.1189 4.24165 72.9277 4.57414 72.9277 4.7793C72.9277 4.81467 73.0056 4.84297 73.0977 4.84297C73.2252 4.84297 73.2747 4.79345 73.3031 4.63781C73.381 4.26287 73.82 4.17798 73.9971 4.49633C74.1104 4.71563 73.9688 5.0269 73.5297 5.5504C72.949 6.22954 72.9773 6.25784 74.0042 6.08805C74.6132 5.98901 74.6486 5.97486 74.592 5.81923C74.5566 5.73434 74.4857 5.72726 74.252 5.76971C73.6855 5.87582 73.6784 5.86875 73.99 5.45844C74.3653 4.95616 74.4574 4.68733 74.3441 4.41143C74.1812 4.02234 73.7067 3.88793 73.3102 4.12846Z" fill="#663494"/>
<path d="M80.3923 4.14254C80.0665 4.23451 79.9532 4.41137 79.8258 5.01976C79.7195 5.52911 79.7195 5.59278 79.8258 5.81209C80.0099 6.20118 80.5269 6.35681 80.9234 6.15165C81.1501 6.03847 81.2421 5.84038 81.3625 5.21784C81.4263 4.86413 81.4263 4.72971 81.3554 4.55993C81.2209 4.22744 80.7676 4.03643 80.3923 4.14254ZM80.9589 4.53163C81.0934 4.65897 81.1005 4.82168 81.0013 5.34518C80.8951 5.92528 80.5339 6.14458 80.2153 5.82624C80.0878 5.6989 80.0736 5.62815 80.1161 5.28151C80.1728 4.82875 80.2648 4.55286 80.3852 4.47504C80.5269 4.38307 80.8455 4.41137 80.9589 4.53163Z" fill="#663494"/>
<path d="M83.3309 5.80498C83.2672 5.8828 83.2601 5.94647 83.3167 6.03136C83.4159 6.187 83.6213 6.187 83.7204 6.02429C83.7841 5.91817 83.77 5.87572 83.6638 5.79083C83.4867 5.66349 83.4442 5.66349 83.3309 5.80498Z" fill="#663494"/>
<path d="M69.9608 5.9252C69.8334 6.08791 69.9467 6.27184 70.1591 6.24355C70.3008 6.2294 70.3433 6.18695 70.3433 6.04547C70.3433 5.84031 70.1025 5.76249 69.9608 5.9252Z" fill="#663494"/>
<path d="M84.7119 6.36393C84.6411 6.54079 84.7403 6.68228 84.9244 6.68228C85.1156 6.68228 85.2218 6.49835 85.1014 6.35686C84.9952 6.22245 84.7615 6.22952 84.7119 6.36393Z" fill="#663494"/>
<path d="M68.5869 6.44172C68.516 6.51954 68.5231 6.73885 68.6081 6.78837C68.7497 6.87326 68.9693 6.74592 68.948 6.59029C68.9268 6.43465 68.6931 6.34268 68.5869 6.44172Z" fill="#663494"/>
<path d="M86.1142 6.98646C86.0009 7.12087 86.1708 7.34018 86.355 7.30481C86.5533 7.26944 86.5391 6.93694 86.3408 6.90864C86.2629 6.89449 86.1567 6.92987 86.1142 6.98646Z" fill="#663494"/>
<path d="M67.1986 7.12796C67.0712 7.29067 67.1845 7.4746 67.3969 7.44631C67.5386 7.43216 67.581 7.38971 67.581 7.24822C67.581 7.04307 67.3403 6.96525 67.1986 7.12796Z" fill="#663494"/>
<path d="M87.4599 7.68677C87.3324 7.81411 87.3536 7.94144 87.5236 8.03341C87.729 8.13952 87.9414 7.94852 87.8281 7.75751C87.729 7.60188 87.5732 7.57358 87.4599 7.68677Z" fill="#663494"/>
<path d="M65.931 7.82837C65.8248 7.93449 65.8177 8.14672 65.9168 8.20331C65.9593 8.22453 66.0514 8.22453 66.1293 8.20331C66.2992 8.14672 66.3205 7.84959 66.1576 7.78592C66.016 7.72933 66.0301 7.72933 65.931 7.82837Z" fill="#663494"/>
<path d="M88.678 8.55686C88.6284 8.67712 88.763 8.8752 88.8975 8.8752C88.9471 8.8752 89.025 8.82568 89.0746 8.76909C89.1454 8.6842 89.1454 8.64175 89.0746 8.55686C88.9613 8.42245 88.7276 8.42245 88.678 8.55686Z" fill="#663494"/>
<path d="M64.6563 8.6773C64.5289 8.80464 64.5501 8.93198 64.7059 9.01687C64.8121 9.06639 64.8688 9.05932 64.9538 8.97442C65.0175 8.91783 65.0671 8.84001 65.0671 8.81172C65.0671 8.7339 64.9042 8.59241 64.8192 8.59241C64.7767 8.59241 64.7059 8.62778 64.6563 8.6773Z" fill="#663494"/>
<path d="M89.8816 9.47655C89.832 9.59681 89.9666 9.79489 90.1011 9.79489C90.1507 9.79489 90.2286 9.74537 90.2782 9.68878C90.349 9.60388 90.349 9.56144 90.2782 9.47655C90.1649 9.34213 89.9312 9.34213 89.8816 9.47655Z" fill="#663494"/>
<path d="M63.4808 9.62523C63.3462 9.75964 63.3604 9.85868 63.5304 9.9648C63.7003 10.0709 63.927 9.84454 63.8207 9.67475C63.7145 9.50497 63.6154 9.49082 63.4808 9.62523Z" fill="#663494"/>
<path d="M91.0152 10.4669C90.9586 10.6013 91.1073 10.7853 91.2701 10.7853C91.433 10.7853 91.5109 10.5872 91.4047 10.4599C91.2985 10.3255 91.0648 10.3325 91.0152 10.4669Z" fill="#663494"/>
<path d="M62.3121 10.7005C62.2554 10.8066 62.2625 10.8632 62.3404 10.9269C62.4962 11.0542 62.7441 10.9481 62.7157 10.7642C62.6874 10.559 62.4112 10.5166 62.3121 10.7005Z" fill="#663494"/>
<path d="M92.0773 11.5777C92.0135 11.7758 92.2189 11.9455 92.4101 11.8394C92.5659 11.7616 92.5801 11.6272 92.4597 11.5069C92.3251 11.3725 92.1339 11.4079 92.0773 11.5777Z" fill="#663494"/>
<path d="M61.3278 11.7192C61.2145 11.8324 61.2216 12.0375 61.342 12.0799C61.4907 12.1365 61.689 11.9668 61.6536 11.8041C61.6252 11.6413 61.4482 11.5989 61.3278 11.7192Z" fill="#663494"/>
<path d="M74.3442 13.1907V13.8274H76.9645H79.5848V13.1907V12.554H76.9645H74.3442V13.1907Z" fill="#663494"/>
<path d="M93.1323 12.6035C92.8986 12.6955 93.1394 13.0846 93.3802 12.9997C93.5005 12.9502 93.4864 12.646 93.3518 12.5965C93.2881 12.5752 93.2385 12.554 93.2314 12.5611C93.2244 12.5611 93.1748 12.5823 93.1323 12.6035Z" fill="#663494"/>
<path d="M60.2941 12.9431C60.2375 13.0988 60.3224 13.2615 60.4641 13.2615C60.627 13.2615 60.7757 13.0775 60.719 12.9431C60.6695 12.8087 60.3508 12.8016 60.2941 12.9431Z" fill="#663494"/>
<path d="M94.0529 13.8061C93.9042 13.8627 93.9467 14.1669 94.1025 14.2164C94.2795 14.273 94.3858 14.2093 94.3858 14.0395C94.3858 13.891 94.1875 13.7566 94.0529 13.8061Z" fill="#663494"/>
<path d="M59.4867 14.1245C59.3734 14.2377 59.3805 14.3579 59.508 14.4641C59.6496 14.5843 59.8408 14.4287 59.8125 14.2235C59.7842 14.0538 59.6142 13.9972 59.4867 14.1245Z" fill="#663494"/>
<path d="M74.3442 15.1007V15.7374H76.9645H79.5848V15.1007V14.464H76.9645H74.3442V15.1007Z" fill="#663494"/>
<path d="M94.7682 15.1998C94.6974 15.3837 94.7966 15.5394 94.9665 15.5111C95.0869 15.4969 95.1294 15.4403 95.1294 15.313C95.1294 15.1856 95.0869 15.1291 94.9665 15.1149C94.8745 15.1008 94.7895 15.1361 94.7682 15.1998Z" fill="#663494"/>
<path d="M58.6937 15.419C58.5591 15.5817 58.637 15.7727 58.8353 15.7727C58.9698 15.7727 59.0194 15.7303 59.0336 15.6029C59.069 15.3553 58.8495 15.228 58.6937 15.419Z" fill="#663494"/>
<path d="M95.5193 16.4801C95.3848 16.6429 95.4627 16.8339 95.661 16.8339C95.7743 16.8339 95.8451 16.7914 95.8593 16.7065C95.8876 16.5792 95.7601 16.374 95.661 16.374C95.6326 16.374 95.5689 16.4235 95.5193 16.4801Z" fill="#663494"/>
<path d="M57.9781 16.7702C57.8719 16.8976 57.9639 17.1027 58.148 17.1381C58.3038 17.1735 58.4455 16.8905 58.3322 16.7561C58.2259 16.6287 58.0985 16.6287 57.9781 16.7702Z" fill="#663494"/>
<path d="M96.0929 17.881C95.9158 18.1003 96.1849 18.3479 96.4186 18.1781C96.5178 18.1003 96.5319 18.0508 96.4682 17.9518C96.3691 17.789 96.1991 17.7537 96.0929 17.881Z" fill="#663494"/>
<path d="M57.3837 18.2205C57.32 18.4115 57.4829 18.5884 57.6599 18.5247C57.837 18.454 57.7803 18.1144 57.582 18.0861C57.4758 18.072 57.4191 18.1073 57.3837 18.2205Z" fill="#663494"/>
<path d="M96.5812 19.3382C96.5317 19.4443 96.5387 19.508 96.6237 19.5929C96.7583 19.7202 96.8574 19.7061 96.9637 19.5434C97.0132 19.4585 97.0062 19.3948 96.9424 19.317C96.8149 19.1614 96.6733 19.1755 96.5812 19.3382Z" fill="#663494"/>
<path d="M56.9228 19.593C56.8165 19.7203 56.8732 19.8972 57.0361 19.9608C57.206 20.0245 57.3618 19.7911 57.2698 19.6213C57.1848 19.4586 57.0432 19.4515 56.9228 19.593Z" fill="#663494"/>
<path d="M65.8467 22.9179V25.1463H66.2362H66.6257V22.9179V20.6895H66.2362H65.8467V22.9179Z" fill="#663494"/>
<path d="M79.5845 22.9179V25.1463H79.9386C80.2714 25.1463 80.2927 25.1321 80.2927 24.9624V24.7855L80.5264 24.9624C81.1354 25.4293 82.1198 25.2807 82.5376 24.6511C83.1466 23.7597 82.7642 22.4793 81.8011 22.2034C81.362 22.076 81.0008 22.1255 80.6326 22.359L80.3635 22.5288V21.6091V20.6895H79.974H79.5845V22.9179ZM81.6382 22.9179C81.8932 23.0523 82.0631 23.3565 82.0631 23.696C82.0631 24.2054 81.7019 24.5803 81.2133 24.5803C80.7247 24.5803 80.3635 24.2054 80.3635 23.696C80.3635 23.0098 81.0292 22.5995 81.6382 22.9179Z" fill="#663494"/>
<path d="M96.9635 20.7884C96.8927 20.9724 96.9919 21.128 97.1618 21.0997C97.2822 21.0855 97.3247 21.0289 97.3247 20.9016C97.3247 20.7743 97.2822 20.7177 97.1618 20.7035C97.0698 20.6894 96.9848 20.7247 96.9635 20.7884Z" fill="#663494"/>
<path d="M62.1423 20.8097C62.114 20.8309 62.0928 21.8213 62.0928 23.0027V25.1462H63.2117C64.2952 25.1462 64.3448 25.1392 64.713 24.9482C65.1592 24.7218 65.3504 24.4247 65.3504 23.9365C65.3504 23.5404 65.1379 23.1937 64.7768 22.9886L64.5218 22.8471L64.7839 22.6631C64.9751 22.5287 65.0671 22.3943 65.1167 22.1821C65.2867 21.5383 64.9184 20.9865 64.2244 20.838C63.8278 20.7531 62.2202 20.7319 62.1423 20.8097ZM64.1748 21.6161C64.4014 21.793 64.4298 22.175 64.2244 22.3802C64.0686 22.5358 63.6224 22.6207 63.1905 22.5853L62.9072 22.5641L62.8859 22.0123L62.8647 21.4676H63.4242C63.8845 21.4676 64.019 21.4959 64.1748 21.6161ZM64.3944 23.4484C64.5856 23.6253 64.6281 23.9224 64.4935 24.17C64.3731 24.3893 63.9907 24.5096 63.4029 24.5096H62.8718V23.8658V23.222L63.5445 23.2503C64.1252 23.2715 64.2386 23.2998 64.3944 23.4484Z" fill="#663494"/>
<path d="M56.5475 21.0149C56.4625 21.0998 56.4908 21.305 56.6041 21.3969C56.7458 21.5172 56.937 21.3615 56.9086 21.1564C56.8874 21.0078 56.6466 20.9159 56.5475 21.0149Z" fill="#663494"/>
<path d="M68.233 22.2034C67.1211 22.5147 66.7458 24.0215 67.5885 24.8068C68.1763 25.3586 69.3023 25.3727 69.8689 24.8422C70.2584 24.4814 70.4425 23.8588 70.3079 23.3212C70.1026 22.4439 69.1678 21.9417 68.233 22.2034ZM69.1748 22.9179C69.7414 23.208 69.7343 24.1347 69.1748 24.4672C68.7924 24.6865 68.2542 24.5663 68.0134 24.1913C67.8435 23.9296 67.8505 23.4061 68.0276 23.1726C68.2896 22.8118 68.7712 22.7057 69.1748 22.9179Z" fill="#663494"/>
<path d="M71.738 22.2317C71.0653 22.4722 70.7183 22.9603 70.7183 23.6607C70.7183 24.3681 71.0724 24.9058 71.6885 25.1463C71.8089 25.1958 72.0992 25.2312 72.3471 25.2312C72.9844 25.2241 73.4518 24.9553 73.728 24.4318C73.9051 24.0993 73.9263 23.9861 73.9051 23.5758C73.8838 23.1867 73.8413 23.0452 73.6714 22.7976C73.2677 22.2317 72.4391 21.9841 71.738 22.2317ZM72.8924 23.0452C73.1827 23.3353 73.2606 23.6819 73.1119 24.0356C72.7791 24.8421 71.5752 24.6865 71.4619 23.8234C71.384 23.2504 71.7664 22.8189 72.3542 22.8118C72.6091 22.8118 72.7012 22.8542 72.8924 23.0452Z" fill="#663494"/>
<path d="M75.6407 22.1821C75.5203 22.2175 75.3503 22.3307 75.2724 22.4297L75.1308 22.6066L75.1095 22.4085C75.0883 22.2245 75.06 22.2104 74.7555 22.1892L74.4155 22.1679V23.6536V25.1462H74.7696H75.1237V24.2619C75.1237 23.3211 75.1945 23.031 75.4707 22.8825C75.7044 22.7622 76.0302 22.7976 76.186 22.9673C76.3134 23.1088 76.3276 23.2149 76.3276 24.1346V25.1462H76.7171H77.1066V24.1558C77.1066 23.1937 77.1137 23.1513 77.2837 22.9886C77.5032 22.7622 77.8927 22.748 78.0981 22.9532C78.2255 23.0805 78.2397 23.1866 78.2397 24.1205V25.1462H78.6292H79.0187V24.1346C79.0187 23.5828 78.9833 23.0098 78.9408 22.8542C78.8416 22.5004 78.615 22.2741 78.2468 22.175C77.8502 22.0689 77.4961 22.1467 77.1987 22.4085C76.9721 22.6066 76.9437 22.6136 76.88 22.5004C76.7879 22.3448 76.278 22.1043 76.0443 22.1114C75.9452 22.1114 75.7681 22.1467 75.6407 22.1821Z" fill="#663494"/>
<path d="M84.2727 22.2034C83.5292 22.4439 83.1609 22.9957 83.2105 23.8022C83.2317 24.2054 83.2742 24.3469 83.4442 24.5874C83.9682 25.3302 85.1934 25.4576 85.8732 24.8421C85.9582 24.7643 86.029 24.6794 86.029 24.6582C86.029 24.6369 85.9157 24.545 85.7883 24.453L85.5404 24.2832L85.2713 24.4672C84.8251 24.7713 84.294 24.6935 84.0461 24.2832C83.9682 24.1559 83.9045 24.0285 83.9045 23.9932C83.9045 23.9649 84.4144 23.9437 85.0376 23.9437H86.1707V23.6324C86.1707 23.0452 85.8874 22.5005 85.4554 22.2812C85.1721 22.1326 84.6127 22.0973 84.2727 22.2034ZM85.2146 22.8967C85.3067 22.9886 85.3988 23.1301 85.4271 23.215C85.4696 23.3777 85.4696 23.3777 84.6906 23.3777C84.2586 23.3777 83.9045 23.3636 83.9045 23.3423C83.9045 23.2079 84.1524 22.8684 84.3152 22.7764C84.5773 22.6278 85.0163 22.6844 85.2146 22.8967Z" fill="#663494"/>
<path d="M87.9625 22.1821C87.8421 22.2175 87.6721 22.3307 87.5942 22.4297L87.4526 22.6066L87.4313 22.4085C87.4101 22.2245 87.3888 22.2104 87.0418 22.1892L86.6665 22.1679V23.6536V25.1462H87.056H87.4455V24.2266C87.4455 23.314 87.4455 23.3069 87.6509 23.0805C87.8279 22.8824 87.8987 22.8542 88.2174 22.8542H88.5786V22.5217C88.5786 22.0972 88.4653 22.0335 87.9625 22.1821Z" fill="#663494"/>
<path d="M89.6125 22.2105C88.961 22.4439 88.6494 22.9038 88.6494 23.6536C88.6494 24.545 89.1451 25.1251 89.9666 25.1958C90.3136 25.2241 90.4411 25.2029 90.7244 25.0544L91.0572 24.8846V25.1888C91.0572 25.4293 91.0147 25.5496 90.8519 25.7264C90.6536 25.9457 90.6182 25.9599 90.1508 25.9599C89.7258 25.9599 89.6196 25.9316 89.3859 25.7618L89.1097 25.5708L88.9893 25.7264C88.7132 26.0872 88.6848 26.2004 88.8335 26.3136C89.3009 26.6673 90.4694 26.7593 91.0218 26.4905C91.7158 26.1509 91.8362 25.7476 91.8362 23.7173V22.1751H91.4821C91.1351 22.1751 91.128 22.1751 91.128 22.3944V22.6137L90.9156 22.4298C90.6961 22.2529 90.2924 22.1044 90.0304 22.1044C89.9525 22.1114 89.7613 22.1539 89.6125 22.2105ZM90.7031 22.9179C91.1139 23.1301 91.2484 23.7102 90.9864 24.1347C90.8164 24.4247 90.6252 24.5238 90.2428 24.5238C89.5488 24.5238 89.1735 23.9012 89.4709 23.2646C89.5346 23.1301 89.6692 22.9745 89.7754 22.9179C90.0162 22.7835 90.4482 22.7835 90.7031 22.9179Z" fill="#663494"/>
<path d="M97.2542 22.246C97.233 22.2884 97.233 22.3804 97.2542 22.4653C97.325 22.6846 97.6012 22.6138 97.6296 22.3662C97.6508 22.2035 97.6296 22.1752 97.4738 22.1752C97.3746 22.1752 97.2755 22.2106 97.2542 22.246Z" fill="#663494"/>
<path d="M56.3 22.543C56.1867 22.6562 56.1937 22.7765 56.3141 22.8755C56.4699 23.0028 56.6541 22.8897 56.6257 22.6774C56.6045 22.4793 56.4345 22.4086 56.3 22.543Z" fill="#663494"/>
<path d="M97.4596 23.7597C97.3888 23.9437 97.488 24.0993 97.6579 24.071C97.7783 24.0569 97.8208 24.0003 97.8208 23.8729C97.8208 23.7456 97.7783 23.689 97.6579 23.6748C97.5659 23.6607 97.4809 23.6961 97.4596 23.7597Z" fill="#663494"/>
<path d="M56.1584 24.0286C56.0239 24.163 56.0593 24.354 56.2222 24.4035C56.4134 24.4672 56.5196 24.3611 56.4842 24.1488C56.4629 23.9578 56.293 23.8942 56.1584 24.0286Z" fill="#663494"/>
<path d="M97.5516 25.3302C97.4596 25.4221 97.5021 25.7192 97.6154 25.7617C97.7853 25.8254 97.9765 25.599 97.8845 25.4433C97.7995 25.3089 97.6295 25.2523 97.5516 25.3302Z" fill="#663494"/>
<path d="M56.1085 25.5495C56.0448 25.6061 56.0093 25.7051 56.0306 25.7617C56.0518 25.8183 56.0731 25.882 56.0731 25.8961C56.0731 25.981 56.4201 25.9103 56.4555 25.8183C56.5546 25.5636 56.2926 25.3585 56.1085 25.5495Z" fill="#663494"/>
<path d="M97.4596 27.014C97.3888 27.1979 97.488 27.3536 97.6579 27.3253C97.7783 27.3111 97.8208 27.2545 97.8208 27.1272C97.8208 26.9998 97.7783 26.9433 97.6579 26.9291C97.5659 26.915 97.4809 26.9503 97.4596 27.014Z" fill="#663494"/>
<path d="M56.1087 27.1342C56.0733 27.2474 56.0945 27.3182 56.1795 27.3818C56.3565 27.5163 56.5123 27.4243 56.484 27.205C56.4557 26.9574 56.1795 26.9078 56.1087 27.1342Z" fill="#663494"/>
<path d="M97.3389 28.45C97.2468 28.542 97.2893 28.8108 97.4097 28.8532C97.5726 28.9169 97.7425 28.733 97.6788 28.549C97.6363 28.4075 97.438 28.351 97.3389 28.45Z" fill="#663494"/>
<path d="M56.3354 28.5137C56.2434 28.6127 56.2859 28.8815 56.4063 28.924C56.5833 28.9947 56.7674 28.7825 56.6683 28.6269C56.5833 28.4925 56.4133 28.4359 56.3354 28.5137Z" fill="#663494"/>
<path d="M71.1576 29.879V30.4379L70.938 30.3317C70.6264 30.1761 70.2511 30.2539 70.0103 30.5227C69.8403 30.6996 69.812 30.7986 69.812 31.1311C69.812 31.4849 69.8333 31.5485 70.0528 31.7678C70.2511 31.9659 70.3431 32.0084 70.6052 32.0084C70.7751 32.0084 70.9876 31.9588 71.0726 31.8952C71.2142 31.7961 71.2284 31.7961 71.2284 31.8952C71.2284 31.9659 71.2921 32.0084 71.4054 32.0084H71.5825V30.6642V29.3201H71.37H71.1576V29.879ZM70.9097 30.6359C70.9663 30.6642 71.0726 30.7774 71.1292 30.8906C71.3134 31.2443 71.0867 31.6546 70.7114 31.6546C70.4069 31.6546 70.2369 31.4778 70.2369 31.1453C70.2369 30.7279 70.5414 30.4944 70.9097 30.6359Z" fill="#663494"/>
<path d="M86.3267 30.643L86.3479 31.973L86.5462 31.9942L86.7374 32.0154V30.6713V29.3201H86.525H86.3125L86.3267 30.643Z" fill="#663494"/>
<path d="M63.5803 29.4546C63.2616 29.5182 63.0917 29.6173 62.865 29.8649C62.2843 30.4874 62.4826 31.5132 63.2616 31.9235C63.5236 32.0579 64.3168 32.0721 64.6284 31.9447L64.855 31.8528V31.2231V30.5935H64.3522C63.8777 30.5935 63.8565 30.6006 63.8777 30.7492C63.8919 30.8836 63.9486 30.9189 64.1681 30.9331C64.4301 30.9543 64.4301 30.9614 64.4301 31.2656C64.4301 31.5627 64.423 31.5769 64.1823 31.6264C63.6794 31.7183 63.3183 31.5486 63.0917 31.11C62.8934 30.7279 63.1129 30.1054 63.5095 29.9073C63.7503 29.7871 64.0689 29.7941 64.3168 29.9215C64.5009 30.0205 64.5363 30.0205 64.6567 29.9144C64.8267 29.7517 64.8196 29.6951 64.593 29.5819C64.331 29.4475 63.8919 29.398 63.5803 29.4546Z" fill="#663494"/>
<path d="M77.3896 30.7351V32.0085H78.2395H79.0893V31.7962V31.584H78.4519H77.8146V31.2303V30.8766H78.3811C78.9406 30.8766 78.9476 30.8766 78.9476 30.6997C78.9476 30.5229 78.9406 30.5229 78.3811 30.5229H77.8146V30.2045V29.8862H78.4165H79.0185V29.6739V29.4617H78.2041H77.3896V30.7351Z" fill="#663494"/>
<path d="M87.4458 29.5677C87.3183 29.7163 87.4245 29.9568 87.6157 29.9568C87.8494 29.9568 87.9698 29.7941 87.8707 29.6101C87.7857 29.4404 87.5732 29.4191 87.4458 29.5677Z" fill="#663494"/>
<path d="M88.5787 30.063C88.5787 30.261 88.5504 30.3106 88.437 30.3106C88.3308 30.3106 88.2954 30.3601 88.2954 30.4874C88.2954 30.6148 88.3308 30.6643 88.437 30.6643C88.5645 30.6643 88.5787 30.7138 88.5787 31.1949C88.5787 31.6335 88.5999 31.7467 88.7274 31.874C88.9186 32.065 89.3931 32.0438 89.3931 31.8316C89.3931 31.7467 89.3294 31.683 89.216 31.6547C89.0532 31.6193 89.039 31.5769 89.0178 31.1453C88.9965 30.6784 88.9965 30.6714 89.1948 30.6501C89.3364 30.636 89.4002 30.5865 89.4143 30.4662C89.4356 30.3318 89.4073 30.3106 89.2231 30.3106C89.0178 30.3106 89.0036 30.2893 89.0036 30.063C89.0036 29.8366 88.9894 29.8154 88.7911 29.8154C88.5928 29.8154 88.5787 29.8366 88.5787 30.063Z" fill="#663494"/>
<path d="M97.056 29.9286C96.964 30.0206 97.0065 30.2965 97.1198 30.339C97.2756 30.4026 97.4455 30.247 97.4172 30.0701C97.3959 29.9216 97.1552 29.8296 97.056 29.9286Z" fill="#663494"/>
<path d="M56.6182 29.9992C56.5261 30.0983 56.5686 30.3671 56.689 30.4096C56.866 30.4803 57.0502 30.2681 56.951 30.1124C56.866 29.978 56.6961 29.9214 56.6182 29.9992Z" fill="#663494"/>
<path d="M65.9456 30.3105C65.8677 30.3388 65.7119 30.4732 65.6056 30.6006C65.4286 30.8057 65.4074 30.8765 65.4357 31.2231C65.464 31.5414 65.5065 31.6405 65.6977 31.8103C66.0022 32.0791 66.5829 32.0932 66.8804 31.8386C67.0787 31.6759 67.0787 31.6759 66.9299 31.598C66.8166 31.5344 66.7317 31.5414 66.5759 31.6193C66.4696 31.6759 66.3138 31.7042 66.2359 31.6829C66.073 31.6334 65.8464 31.4495 65.8464 31.3575C65.8464 31.3292 66.1368 31.3009 66.4838 31.3009H67.1212V31.0675C67.1212 30.4732 66.5192 30.0771 65.9456 30.3105ZM66.6113 30.6784C66.8025 30.8694 66.7033 30.9472 66.2713 30.9472C66.0376 30.9472 65.8464 30.926 65.8464 30.8977C65.8464 30.6572 66.4201 30.4874 66.6113 30.6784Z" fill="#663494"/>
<path d="M68.2677 30.3531C68.1827 30.4097 68.1119 30.4238 68.1119 30.3884C68.1119 30.346 68.0199 30.3106 67.8995 30.3106H67.687V31.1595V32.0085H67.8995H68.1119V31.4213C68.1119 30.9332 68.1332 30.8058 68.2394 30.7139C68.4023 30.5653 68.5652 30.5582 68.7068 30.7068C68.7918 30.7917 68.8201 30.9615 68.8201 31.4142V32.0085H69.0326H69.245V31.3293C69.245 30.6785 69.2379 30.6431 69.0396 30.445C68.8059 30.2116 68.5156 30.1762 68.2677 30.3531Z" fill="#663494"/>
<path d="M72.5881 30.3813C72.0287 30.7209 72.0428 31.6688 72.6165 31.9235C73.098 32.1499 73.9762 31.9023 73.7 31.6193C73.6008 31.5203 73.5654 31.5203 73.3317 31.6193C73.0343 31.7396 72.7723 31.6759 72.6448 31.4495C72.574 31.308 72.5952 31.308 73.2255 31.2868L73.8841 31.2656L73.8699 31.0534C73.8133 30.3459 73.1901 30.0205 72.5881 30.3813ZM73.4096 30.7845L73.5088 30.9472H73.0414C72.5527 30.9472 72.5386 30.9331 72.7369 30.6784C72.8502 30.5299 73.2822 30.6006 73.4096 30.7845Z" fill="#663494"/>
<path d="M75.0243 30.3883C74.8756 30.5086 74.8402 30.5157 74.8402 30.4237C74.8402 30.3459 74.7765 30.3105 74.6277 30.3105H74.4082L74.4294 31.1382L74.4507 31.973L74.6348 31.9942C74.826 32.0154 74.826 32.0154 74.8473 31.4495C74.8756 30.834 74.9535 30.6855 75.2651 30.643C75.3926 30.6218 75.4492 30.5652 75.4634 30.4308C75.4917 30.1903 75.3005 30.169 75.0243 30.3883Z" fill="#663494"/>
<path d="M79.9952 30.353C79.7332 30.4945 79.5845 30.7987 79.5845 31.2019C79.5845 31.4778 79.6199 31.5627 79.8253 31.7679C80.0235 31.9659 80.1156 32.0084 80.3776 32.0084C80.5476 32.0084 80.7601 31.9589 80.845 31.8952L81.0008 31.7891V32.3267V32.8644L81.1991 32.8432L81.3903 32.8219L81.4116 31.5627L81.4257 30.3105H81.2133C81.0646 30.3105 81.0008 30.3459 81.0008 30.4237C81.0008 30.5157 80.9654 30.5086 80.8167 30.3884C80.5972 30.2186 80.2643 30.2044 79.9952 30.353ZM80.7884 30.735C81.1425 31.0887 80.9725 31.5981 80.4839 31.6405C80.1864 31.6688 80.0094 31.4707 80.0094 31.1099C80.0094 30.6643 80.4839 30.4308 80.7884 30.735Z" fill="#663494"/>
<path d="M84.493 30.346C84.2381 30.4522 84.2027 30.53 84.3585 30.6573C84.4364 30.721 84.5001 30.721 84.6063 30.6715C84.8117 30.5583 85.0808 30.5795 85.2083 30.7068C85.3712 30.8695 85.3004 30.9261 84.8896 30.9615C84.2239 31.0252 83.9194 31.4638 84.2877 31.8317C84.4859 32.0297 84.8613 32.0722 85.1304 31.9307C85.2437 31.867 85.2862 31.867 85.3074 31.9307C85.3216 31.9731 85.4137 32.0085 85.5057 32.0085C85.6757 32.0085 85.6757 32.0014 85.6757 31.3294C85.6757 30.6785 85.6686 30.6432 85.4703 30.4451C85.2295 30.2116 84.8825 30.1763 84.493 30.346ZM85.3216 31.2657C85.3216 31.4072 85.1233 31.6689 84.9888 31.6972C84.6559 31.7821 84.401 31.5062 84.6488 31.3294C84.7692 31.2374 85.3216 31.1879 85.3216 31.2657Z" fill="#663494"/>
<path d="M82.0635 31.004C82.0635 31.6407 82.0776 31.7114 82.2264 31.8529C82.4247 32.0369 82.8071 32.0581 83.0408 31.8954C83.1824 31.7963 83.1966 31.7963 83.1966 31.9024C83.1966 31.9873 83.2461 32.0086 83.3949 31.9944L83.5861 31.9732L83.6073 31.1384L83.6286 30.3107H83.409H83.1966V30.7847C83.1966 31.4214 83.0903 31.6195 82.7717 31.6195H82.5238L82.5026 30.9616L82.4813 30.3107H82.2759H82.0635V31.004Z" fill="#663494"/>
<path d="M87.4458 31.1594V32.0084H87.6582H87.8707V31.1594V30.3105H87.6582H87.4458V31.1594Z" fill="#663494"/>
<path d="M89.6411 30.3317C89.6411 30.353 89.7969 30.742 89.9952 31.1948C90.3351 31.9871 90.3422 32.0296 90.2431 32.2276C90.1368 32.4257 90.066 32.4611 89.8748 32.4399C89.8182 32.4328 89.7827 32.5106 89.7827 32.6521C89.7827 32.8714 89.7898 32.8714 90.0448 32.836C90.1864 32.8077 90.3635 32.737 90.4272 32.6662C90.498 32.5955 90.7459 32.0437 90.9796 31.4424C91.3761 30.4166 91.3903 30.3459 91.2628 30.3247C91.0079 30.2822 90.9512 30.353 90.7742 30.9047C90.6821 31.2019 90.5901 31.4424 90.5617 31.4424C90.5334 31.4424 90.4201 31.1948 90.3068 30.8906C90.1156 30.3742 90.0873 30.3459 89.8677 30.3247C89.7473 30.3105 89.6411 30.3176 89.6411 30.3317Z" fill="#663494"/>
<path d="M75.6899 31.1242C75.6899 31.294 75.7112 31.3011 76.1148 31.3011C76.5185 31.3011 76.5398 31.294 76.5398 31.1242C76.5398 30.9544 76.5185 30.9473 76.1148 30.9473C75.7112 30.9473 75.6899 30.9544 75.6899 31.1242Z" fill="#663494"/>
<path d="M96.6237 31.4778C96.567 31.6334 96.652 31.7961 96.7937 31.7961C96.9565 31.7961 97.0911 31.6264 97.0344 31.4849C96.9778 31.3434 96.6804 31.3363 96.6237 31.4778Z" fill="#663494"/>
<path d="M56.9513 31.5415C56.8805 31.7255 56.9797 31.8811 57.1496 31.8528C57.27 31.8387 57.3125 31.7821 57.3125 31.6547C57.3125 31.5274 57.27 31.4708 57.1496 31.4566C57.0576 31.4425 56.9726 31.4779 56.9513 31.5415Z" fill="#663494"/>
<path d="M96.1703 32.8715C96.057 32.9847 96.0641 33.0342 96.1916 33.1686C96.312 33.2889 96.4748 33.2535 96.5386 33.0978C96.6377 32.8502 96.3615 32.6805 96.1703 32.8715Z" fill="#663494"/>
<path d="M57.4472 32.9564C57.3764 33.1403 57.4755 33.2818 57.6667 33.2818C57.8296 33.2818 57.8509 33.2535 57.8296 33.0837C57.8084 32.8644 57.518 32.7654 57.4472 32.9564Z" fill="#663494"/>
<path d="M76.8936 33.7063V34.2793L76.6811 34.1661C76.3978 34.0175 76.1783 34.0317 75.895 34.2227C75.2931 34.6259 75.4347 35.6305 76.1146 35.8356C76.3483 35.9064 76.4262 35.8993 76.674 35.779C76.9006 35.6659 76.9644 35.6588 76.9644 35.7295C76.9644 35.7861 77.0352 35.8286 77.1414 35.8286H77.3185V34.4844V33.1403H77.106H76.8936V33.7063ZM76.7307 34.5693C76.9644 34.7886 76.9573 35.206 76.7094 35.397C76.6032 35.4819 76.4828 35.5456 76.4332 35.5456C76.3837 35.5456 76.2633 35.4819 76.1571 35.397C76.0154 35.2838 75.9729 35.1919 75.9729 34.9726C75.9729 34.4774 76.3908 34.251 76.7307 34.5693Z" fill="#663494"/>
<path d="M72.2905 34.5905V35.8286H72.503H72.7154V34.5905V33.3525H72.503H72.2905V34.5905Z" fill="#663494"/>
<path d="M74.1315 34.1095C74.0749 34.1307 73.9686 34.1944 73.9049 34.2581C73.7916 34.3571 73.7774 34.35 73.7774 34.251C73.7774 34.1732 73.7208 34.1307 73.6004 34.1307H73.4233V34.9796V35.8286H73.6358H73.8412L73.8624 35.2131C73.8837 34.6259 73.8907 34.5905 74.0749 34.4915C74.2448 34.3925 74.2732 34.3925 74.4077 34.5127C74.5352 34.6259 74.5564 34.732 74.5564 35.2414V35.8286H74.776H74.9955L74.9672 35.114C74.9459 34.4349 74.9388 34.3925 74.7476 34.2298C74.5564 34.067 74.3581 34.0246 74.1315 34.1095Z" fill="#663494"/>
<path d="M78.3809 34.1804C77.9064 34.428 77.7577 35.1 78.0835 35.5386C78.3526 35.8994 79.0324 35.9772 79.3936 35.6801C79.5353 35.5669 79.5423 35.5457 79.4361 35.4396C79.3299 35.3335 79.3016 35.3335 79.0679 35.4467C78.7704 35.5882 78.5155 35.5174 78.3809 35.2627C78.3101 35.1283 78.3243 35.1212 78.9475 35.1212H79.5848V34.8383C79.5848 34.244 78.9404 33.8903 78.3809 34.1804ZM79.0749 34.4987C79.1245 34.5482 79.1599 34.6402 79.1599 34.7109C79.1599 34.817 79.0962 34.8383 78.735 34.8383C78.2818 34.8383 78.2251 34.7817 78.4517 34.5553C78.6075 34.3997 78.9404 34.3643 79.0749 34.4987Z" fill="#663494"/>
<path d="M80.0098 34.1732C80.0098 34.1944 80.1373 34.3783 80.2931 34.5693L80.5763 34.923L80.2152 35.3758L79.854 35.8286H80.1302C80.3639 35.8215 80.4276 35.7861 80.6047 35.5314L80.8101 35.2343L80.9729 35.4253C81.065 35.5314 81.1641 35.6658 81.1996 35.7295C81.242 35.8073 81.3412 35.8286 81.5182 35.8144L81.7803 35.7932L81.4616 35.4041C81.2916 35.1919 81.15 34.9796 81.1429 34.9372C81.1429 34.8947 81.2562 34.7108 81.3908 34.5339C81.5253 34.3571 81.6386 34.1944 81.6386 34.1732C81.6386 34.1519 81.5253 34.1307 81.3908 34.1307C81.2562 34.1307 81.1429 34.1519 81.1429 34.1802C81.1429 34.2156 81.065 34.3288 80.98 34.442L80.8101 34.6471L80.6543 34.3925C80.5197 34.1732 80.456 34.1307 80.2506 34.1307C80.116 34.1307 80.0098 34.1519 80.0098 34.1732Z" fill="#663494"/>
<path d="M58.0843 34.3005C57.9427 34.4066 57.9852 34.6047 58.1693 34.6754C58.3109 34.732 58.5021 34.541 58.4455 34.3995C58.3817 34.2368 58.233 34.1944 58.0843 34.3005Z" fill="#663494"/>
<path d="M95.547 34.3076C95.4762 34.4844 95.5754 34.6401 95.7453 34.6118C95.8657 34.5976 95.9153 34.5339 95.9295 34.3925C95.9507 34.2297 95.9295 34.2014 95.7666 34.2014C95.6674 34.2014 95.5683 34.251 95.547 34.3076Z" fill="#663494"/>
<path d="M94.9171 35.5951C94.8533 35.6517 94.8179 35.7507 94.8392 35.8073C94.8604 35.8639 94.8817 35.9276 94.8817 35.9417C94.8817 36.0125 95.1579 35.963 95.2287 35.871C95.4057 35.6588 95.1154 35.397 94.9171 35.5951Z" fill="#663494"/>
<path d="M58.7714 35.6446C58.6368 35.8073 58.743 36.0408 58.9484 36.0408C59.1467 36.0408 59.2458 35.8639 59.1396 35.6941C59.0405 35.5385 58.8776 35.5173 58.7714 35.6446Z" fill="#663494"/>
<path d="M94.1235 36.8685C93.996 36.918 94.0102 37.1373 94.1376 37.2434C94.2793 37.3637 94.4705 37.208 94.4422 37.0029C94.4209 36.8543 94.2864 36.7978 94.1235 36.8685Z" fill="#663494"/>
<path d="M59.5222 36.9888C59.423 37.2364 59.6851 37.4628 59.8763 37.3071C59.9329 37.2576 59.9683 37.1515 59.9542 37.0737C59.9258 36.8897 59.5859 36.8261 59.5222 36.9888Z" fill="#663494"/>
<path d="M93.2243 38.1277C93.1393 38.2126 93.1322 38.2763 93.1818 38.3824C93.2739 38.5451 93.4155 38.5593 93.543 38.4036C93.6067 38.3258 93.6138 38.2621 93.5642 38.1772C93.458 38.0145 93.3589 38.0004 93.2243 38.1277Z" fill="#663494"/>
<path d="M60.4215 38.1914C60.3507 38.3753 60.4286 38.5522 60.5773 38.5734C60.7897 38.6017 60.9172 38.4249 60.8181 38.2409C60.7331 38.0711 60.4781 38.0428 60.4215 38.1914Z" fill="#663494"/>
<path d="M61.4199 39.3374C61.2924 39.4647 61.3066 39.5708 61.4695 39.6699C61.6182 39.7689 61.8094 39.684 61.8094 39.5142C61.8094 39.302 61.5686 39.1959 61.4199 39.3374Z" fill="#663494"/>
<path d="M92.2189 39.3234C92.1481 39.5073 92.2472 39.6629 92.4172 39.6346C92.5376 39.6205 92.5801 39.5639 92.5801 39.4366C92.5801 39.3092 92.5376 39.2526 92.4172 39.2385C92.3251 39.2243 92.2402 39.2597 92.2189 39.3234Z" fill="#663494"/>
<path d="M91.2131 40.3703C91.0998 40.4835 91.1068 40.6037 91.2272 40.7028C91.4255 40.8655 91.7088 40.5825 91.5459 40.3844C91.4468 40.2642 91.3264 40.2571 91.2131 40.3703Z" fill="#663494"/>
<path d="M62.4261 40.4552C62.3694 40.5967 62.4332 40.7594 62.5606 40.8089C62.7448 40.8797 62.8793 40.7735 62.8581 40.5755C62.8439 40.434 62.7943 40.3845 62.6527 40.3703C62.5323 40.3562 62.4473 40.3915 62.4261 40.4552Z" fill="#663494"/>
<path d="M90.1016 41.3749C89.9599 41.481 89.9953 41.6791 90.1724 41.7428C90.2999 41.7923 90.4911 41.6579 90.4911 41.5164C90.4911 41.3607 90.2432 41.2688 90.1016 41.3749Z" fill="#663494"/>
<path d="M63.5729 41.4598C63.4525 41.6083 63.5729 41.8064 63.7995 41.8064C63.927 41.8064 63.9766 41.764 63.9907 41.6366C64.0332 41.3678 63.7499 41.2475 63.5729 41.4598Z" fill="#663494"/>
<path d="M88.8975 42.2946C88.7558 42.4007 88.7912 42.5988 88.9683 42.6625C89.0958 42.712 89.287 42.5776 89.287 42.4361C89.287 42.2804 89.0391 42.1885 88.8975 42.2946Z" fill="#663494"/>
<path d="M64.7978 42.3511C64.6844 42.4643 64.6915 42.5846 64.819 42.6907C64.9677 42.818 65.2085 42.7119 65.2085 42.5138C65.2085 42.2875 64.9606 42.1884 64.7978 42.3511Z" fill="#663494"/>
<path d="M87.623 43.1575C87.4955 43.2919 87.5097 43.391 87.6726 43.4971C87.7576 43.5466 87.8213 43.5396 87.8992 43.4759C88.0479 43.3556 88.0479 43.1434 87.8992 43.0868C87.7505 43.0302 87.7576 43.0302 87.623 43.1575Z" fill="#663494"/>
<path d="M66.0371 43.1646C65.9308 43.2637 65.9946 43.4759 66.1575 43.5537C66.377 43.6527 66.554 43.582 66.554 43.4051C66.554 43.2 66.1716 43.0231 66.0371 43.1646Z" fill="#663494"/>
<path d="M86.5253 43.8579C86.412 43.9923 86.4828 44.1763 86.6528 44.1763C86.8298 44.1763 86.9644 44.0136 86.9077 43.865C86.8511 43.7235 86.6386 43.7164 86.5253 43.8579Z" fill="#663494"/>
<path d="M67.5737 44.0701C67.5029 44.247 67.6021 44.3885 67.7862 44.3885C67.9774 44.3885 68.0837 44.2045 67.9633 44.0631C67.857 43.9286 67.6233 43.9357 67.5737 44.0701Z" fill="#663494"/>
<path d="M85.1793 44.4947C85.0589 44.6432 85.1439 44.813 85.3493 44.813C85.5476 44.813 85.6113 44.6928 85.5193 44.5088C85.4414 44.3603 85.2997 44.3532 85.1793 44.4947Z" fill="#663494"/>
<path d="M68.9339 44.7139C68.8702 44.8696 69.0189 45.0393 69.2031 45.011C69.3093 44.9969 69.3518 44.9403 69.3518 44.813C69.3518 44.6715 69.3093 44.629 69.1676 44.6149C69.0402 44.6007 68.9623 44.6361 68.9339 44.7139Z" fill="#663494"/>
<path d="M83.7633 45.0606C83.6429 45.2092 83.7279 45.3789 83.9333 45.3789C84.1245 45.3789 84.2307 45.195 84.1103 45.0535C84.0041 44.9262 83.8766 44.9262 83.7633 45.0606Z" fill="#663494"/>
<path d="M70.3857 45.188C70.2086 45.4073 70.5273 45.6903 70.7256 45.4851C70.8106 45.4002 70.8177 45.3507 70.761 45.2517C70.6548 45.0961 70.4919 45.0678 70.3857 45.188Z" fill="#663494"/>
<path d="M82.361 45.4638C82.1627 45.6619 82.3398 45.9307 82.5947 45.8317C82.7364 45.7751 82.7293 45.478 82.5877 45.4214C82.446 45.3648 82.4602 45.3648 82.361 45.4638Z" fill="#663494"/>
<path d="M71.8447 45.57C71.7456 45.662 71.7951 45.8742 71.9297 45.945C72.128 46.044 72.3192 45.853 72.22 45.6549C72.1492 45.5205 71.9368 45.471 71.8447 45.57Z" fill="#663494"/>
<path d="M80.8527 45.8458C80.7323 45.9873 80.8598 46.1995 81.0439 46.1712C81.2281 46.1358 81.2918 46.0156 81.2068 45.8599C81.1218 45.7043 80.9802 45.6972 80.8527 45.8458Z" fill="#663494"/>
<path d="M73.3314 45.9236C73.2323 46.0156 73.2889 46.2207 73.4235 46.2632C73.6147 46.3268 73.7068 46.2561 73.7068 46.0439C73.7068 45.9165 73.6714 45.8741 73.5439 45.8741C73.4518 45.8741 73.3527 45.8953 73.3314 45.9236Z" fill="#663494"/>
<path d="M74.8326 46.1288C74.7264 46.2561 74.8184 46.4613 75.0025 46.4966C75.1796 46.532 75.2858 46.2632 75.1513 46.1288C75.0167 45.9873 74.953 45.9873 74.8326 46.1288Z" fill="#663494"/>
<path d="M79.3298 46.1217C79.2589 46.2986 79.3581 46.4542 79.528 46.4259C79.6484 46.4118 79.698 46.3481 79.7122 46.2066C79.7334 46.0439 79.7122 46.0156 79.5493 46.0156C79.4501 46.0156 79.351 46.0651 79.3298 46.1217Z" fill="#663494"/>
<path d="M77.9062 46.1358C77.7787 46.1854 77.7929 46.4896 77.9204 46.5391C78.1753 46.6381 78.3524 46.3693 78.1541 46.1712C78.062 46.0793 78.0408 46.0793 77.9062 46.1358Z" fill="#663494"/>
<path d="M76.2848 46.2631C76.214 46.4399 76.4406 46.6381 76.5964 46.5391C76.6602 46.4966 76.7168 46.3976 76.7168 46.3268C76.7168 46.15 76.3486 46.0933 76.2848 46.2631Z" fill="#663494"/>
</g>
</g>
<defs>
<clipPath id="clip0_30_1031">
<rect width="154" height="51" fill="white"/>
</clipPath>
</defs>
</svg>
