<svg width="154" height="51" viewBox="0 0 154 51" fill="none" xmlns="http://www.w3.org/2000/svg">
<path d="M43 40.9259H47.7107V41.7772H43.979V45.3102H47.5404V46.1616H43.979V50.8298H43V40.9259Z" fill="#153F8F"/>
<path d="M51.2726 41.7772H48.3496V40.9259H55.1746V41.7772H52.2516V50.8297H51.2726V41.7772Z" fill="#153F8F"/>
<path d="M56.2532 49.5663C56.8349 49.9352 57.516 50.1481 58.4383 50.1481C59.6586 50.1481 60.6659 49.5238 60.6659 48.1191C60.6659 46.1752 56.1255 45.9339 56.1255 43.3374C56.1255 41.7483 57.516 40.755 59.2612 40.755C59.7437 40.755 60.524 40.8259 61.2051 41.0813L61.049 41.9753C60.6092 41.734 59.914 41.6064 59.2471 41.6064C58.2255 41.6064 57.1045 42.032 57.1045 43.309C57.1045 45.2954 61.645 45.3097 61.645 48.2041C61.645 50.2049 59.9282 50.9994 58.3957 50.9994C57.4308 50.9994 56.6789 50.8008 56.1539 50.5738L56.2532 49.5663Z" fill="#153F8F"/>
<path d="M63.6177 40.9259H68.4703V41.7772H64.5967V45.3102H68.2717V46.1616H64.5967V49.9784H68.6406V50.8298H63.6177V40.9259Z" fill="#153F8F"/>
<path d="M74.5438 41.9049H74.5154L70.7127 47.694H74.5438V41.9049ZM69.8188 47.5805L74.2741 40.9259H75.5228V47.694H76.9842V48.5453H75.5228V50.8298H74.5438V48.5453H69.8188V47.5805Z" fill="#153F8F"/>
<path d="M85.3845 46.3177H83.0859V45.4664H86.3635V50.3899C85.3562 50.8298 84.3772 51 83.2845 51C80.1631 51 78.29 48.9426 78.29 45.8778C78.29 42.8698 80.2197 40.7556 83.2845 40.7556C84.0366 40.7556 85.271 40.8833 85.9379 41.2239L85.8243 42.1319C85.0581 41.7063 84.15 41.607 83.2845 41.607C80.7164 41.607 79.2691 43.4231 79.2691 45.8778C79.2691 48.3751 80.6739 50.1488 83.2845 50.1488C83.8946 50.1488 84.9162 50.0778 85.3845 49.794V46.3177Z" fill="#153F8F"/>
<path d="M91.5713 50.2338C93.1321 50.2338 93.9692 48.8859 93.9692 47.2116C93.9692 45.5373 93.1321 44.1893 91.5713 44.1893C90.0105 44.1893 89.1733 45.5373 89.1733 47.2116C89.1733 48.8859 90.0105 50.2338 91.5713 50.2338ZM91.5713 43.4231C93.9124 43.4231 94.9482 45.2393 94.9482 47.2116C94.9482 49.1838 93.9124 51 91.5713 51C89.2301 51 88.1943 49.1838 88.1943 47.2116C88.1943 45.2393 89.2301 43.4231 91.5713 43.4231Z" fill="#153F8F"/>
<path d="M99.4609 50.2338C101.022 50.2338 101.859 48.8859 101.859 47.2116C101.859 45.5373 101.022 44.1893 99.4609 44.1893C97.9001 44.1893 97.063 45.5373 97.063 47.2116C97.063 48.8859 97.9001 50.2338 99.4609 50.2338ZM99.4609 43.4231C101.802 43.4231 102.838 45.2393 102.838 47.2116C102.838 49.1838 101.802 51 99.4609 51C97.1197 51 96.084 49.1838 96.084 47.2116C96.084 45.2393 97.1197 43.4231 99.4609 43.4231Z" fill="#153F8F"/>
<path d="M107.223 50.2338C108.812 50.2338 109.365 48.5311 109.365 47.2116C109.365 45.892 108.812 44.1893 107.223 44.1893C105.52 44.1893 105.08 45.8068 105.08 47.2116C105.08 48.6162 105.52 50.2338 107.223 50.2338ZM110.259 50.8298H109.365V49.6805H109.337C108.854 50.6026 108.117 51 107.081 51C105.094 51 104.101 49.3541 104.101 47.2116C104.101 45.0123 104.952 43.4231 107.081 43.4231C108.5 43.4231 109.209 44.4589 109.337 44.8137H109.365V40.1881H110.259V50.8298Z" fill="#153F8F"/>
<path d="M60.5828 10.4448C56.3622 19.4958 60.2781 30.2546 69.3291 34.4751C78.3801 38.6956 89.1388 34.7798 93.3593 25.7288C97.5798 16.6778 93.6639 5.9191 84.613 1.69854C82.1409 0.545737 79.5417 0 76.9829 0C70.173 0.000178832 63.6506 3.86599 60.5828 10.4448Z" fill="url(#paint0_radial_30_1160)"/>
<path d="M72.9971 20.7452L72.4206 19.5196L71.3765 18.7416L72.3682 16.6148L72.9871 16.1408L72.4825 15.2293L74.0156 14.1695L73.8077 13.341L76.2089 12.5344L78.5204 13.1059L78.976 13.8253L80.5149 13.7509L81.9174 16.3588L81.2302 16.7877L81.8062 17.4011L80.4274 20.3578L79.5481 19.7074L79.5398 19.7174L79.5655 20.931L76.9339 21.7916L76.3929 20.8762L76.9525 20.5454L77.2281 21.0114L78.9052 20.4629L78.8848 19.4874L79.4423 18.8203L80.1745 19.3621L81.0309 17.5253L80.2144 16.6556L81.0561 16.13L80.1367 14.4201L78.6292 14.4928L78.1109 13.6743L76.2365 13.2109L74.5846 13.7658L74.7559 14.4481L73.3363 15.4294L73.8274 16.3162L72.8901 17.034L72.1894 18.5366L72.9396 19.0956L73.3679 20.006L74.3613 19.8034L74.4913 20.4404L72.9971 20.7452Z" fill="#94C11F"/>
<path d="M73.6348 22.3684L75.495 23.2359L76.2242 20.0056L78.305 17.9537L77.8435 17.4547L76.2087 18.4446L75.8 17.7251L75.058 18.0402L75.3589 19.7344L73.6348 22.3684Z" fill="#94C11F"/>
<path d="M88.2979 5.34226L88.6529 5.76693L88.4955 5.83488L88.4877 6.52482L89.1052 7.09332L89.6604 7.82939L90.2655 7.98772L90.035 7.6325L89.6422 7.52735L89.2368 6.99926L88.7938 6.59569L88.7836 6.09765L89.0166 5.98784L88.6584 5.56568L89.0132 5.46458L88.8267 5.20223L89.3201 5.29439L90.0872 5.76579L90.4597 6.14951L90.6166 6.21693C90.4366 6.00978 90.2519 5.80603 90.0618 5.60657L89.1856 5.07038L88.4744 4.93262L88.6896 5.24146L88.2979 5.34226Z" fill="#94C11F"/>
<path d="M92.2496 8.41175L91.97 8.17236L91.9454 8.40245L92.2892 8.938L91.7057 8.89055L91.4234 8.56835L91.272 8.63273L91.8385 9.28809L92.7663 9.35038L92.3129 8.65943L92.3131 8.6558L92.4957 8.81341C92.4153 8.67857 92.3335 8.54457 92.2496 8.41175Z" fill="#94C11F"/>
<path d="M90.4215 8.89143L91.6501 9.88216L90.9256 8.12395L91.225 7.52897L90.8954 7.2128L90.4798 7.34805L90.1247 6.94175L89.8931 6.93811L90.4609 7.80419L90.4215 8.89143Z" fill="#94C11F"/>
<path d="M59.9078 13.0509L60.3685 12.7917L60.388 12.4321L60.0807 12.6177L60.0483 12.1591L59.9445 11.9987C59.9035 12.1129 59.8638 12.2273 59.8252 12.3419L59.8724 12.422L59.9078 13.0509Z" fill="#94C11F"/>
<path d="M62.151 8.49718L62.3119 8.79654L62.9876 8.3497L63.38 9.1191L62.9156 9.6699L63.3058 10.0497L62.7451 11.51L62.4097 11.2444L62.1018 11.7795L62.0402 12.4609L61.2719 12.9772L61.2046 12.6852L60.9653 12.9403L61.0865 13.5281L62.328 12.747L62.3984 11.8552L62.4033 11.847L62.8223 12.2201L63.7622 9.77219L63.449 9.50162L63.8635 9.02277L63.2007 7.85803L62.4951 8.34893L62.3465 8.09975L61.7471 8.32693C61.6653 8.45485 61.585 8.58403 61.5062 8.71452L62.151 8.49718Z" fill="#94C11F"/>
<path d="M60.5335 10.6479L60.5212 10.5808C60.4815 10.6679 60.4416 10.755 60.4033 10.8423L60.5335 10.6479Z" fill="#94C11F"/>
<path d="M59.9233 13.9821L60.419 14.5459L60.9818 12.4L61.9545 10.867L61.799 10.6415L61.1083 11.464L61.0265 11.1089L60.7585 11.3781L60.709 12.3103L59.9233 13.9821Z" fill="#94C11F"/>
<path d="M78.7653 28.8818C78.5105 28.9474 78.1462 29.2949 78.3701 29.5231C78.5938 29.7513 78.7093 30.3004 78.6189 30.4646C78.5286 30.6289 79.0748 30.8148 79.1395 30.5285C79.2042 30.2422 78.9623 29.9643 79.0119 29.7399C79.0616 29.5153 79.203 28.7695 78.7653 28.8818Z" fill="#F59C00"/>
<path d="M80.9646 27.9125C80.5663 27.9735 80.3033 28.4158 80.3908 28.7594C80.4783 29.1028 80.2682 29.3764 80.1741 29.6076C80.08 29.8389 80.5916 30.1876 80.691 29.945C80.7903 29.7023 80.6463 29.3325 80.8083 29.1329C80.9702 28.9332 81.2028 28.6702 81.257 28.4065C81.3112 28.1429 81.1419 27.8852 80.9646 27.9125Z" fill="#F59C00"/>
<path d="M82.6262 27.6249C82.2801 27.5483 82.0069 28.1267 81.9832 28.3547C81.9593 28.5828 81.8985 29.2148 81.7178 29.3369C81.537 29.459 81.3608 29.9548 81.62 30.048C81.8792 30.1414 82.1594 29.7767 82.1296 29.6046C82.0997 29.4324 82.2896 28.8055 82.5059 28.6725C82.7224 28.5396 82.9753 27.7022 82.6262 27.6249Z" fill="#F59C00"/>
<path d="M83.8963 28.4125C83.6355 28.278 83.2388 28.8489 83.1824 29.2354C83.126 29.6219 82.9392 29.7274 82.7283 29.7667C82.5173 29.8058 82.4052 30.1938 82.6087 30.2887C82.8121 30.3835 82.989 30.1221 83.0802 29.9857C83.1713 29.8494 83.5772 29.392 83.77 29.303C83.9628 29.2141 84.1735 28.5556 83.8963 28.4125Z" fill="#F59C00"/>
<path d="M84.3611 31.5462C84.1173 31.3997 83.8843 31.6541 83.7095 31.7928C83.5348 31.9314 83.1526 31.8363 83.2507 32.157C83.3489 32.4776 83.6185 32.3419 83.6878 32.2229C83.7571 32.1038 84.3492 32.1323 84.4456 31.9846C84.5419 31.8369 84.5653 31.6689 84.3611 31.5462Z" fill="#F59C00"/>
<path d="M82.2758 30.8543C81.9538 30.6301 81.7884 30.97 81.315 30.6281C81.127 30.4923 79.5381 31.2373 79.483 31.0603C79.428 30.8832 78.8058 30.9784 78.6613 31.4063C78.5167 31.8342 78.7273 33.0056 79.0858 33.0627C79.4445 33.1199 79.9934 32.908 79.9376 32.6481C79.8819 32.3882 79.9075 31.8911 80.0309 31.7148C80.1544 31.5385 80.7954 31.3145 80.9477 31.5782C81.0998 31.8417 80.9175 32.1715 80.7489 32.2541C80.5802 32.3368 80.1351 32.0304 80.0405 32.1216C79.946 32.2128 79.9957 32.9541 80.3052 33.1608C80.6147 33.3676 81.3719 33.2055 81.5123 33.0161C81.6527 32.8265 82.2332 32.8931 82.4595 32.7028C82.6858 32.5125 82.7294 32.2714 82.4447 32.1593C82.1599 32.0471 81.8201 32.0676 81.8739 31.8932C81.9278 31.7187 82.4329 31.2699 82.2758 30.8543Z" fill="#F59C00"/>
<path d="M81.3038 1.4164C81.1173 1.41449 80.8873 1.54593 81.0918 1.69847C81.2965 1.85108 81.4637 2.15759 81.4178 2.23139C81.3719 2.30525 81.8181 2.48158 81.8268 2.33965C81.8357 2.19771 81.61 2.01632 81.616 1.90485C81.6221 1.79337 81.624 1.41967 81.3038 1.4164Z" fill="#F59C00"/>
<path d="M82.5871 1.32948C82.284 1.36775 82.2091 1.55296 82.387 1.6866C82.565 1.82025 82.4802 1.93649 82.4763 2.03181C82.4723 2.12713 82.995 2.24802 82.9998 2.14799C83.0045 2.04796 82.7726 1.90579 82.8413 1.82067C82.91 1.73554 83.0163 1.6227 82.9779 1.51588C82.9394 1.40906 82.7221 1.31243 82.5871 1.32948Z" fill="#F59C00"/>
<path d="M83.6383 1.57089C83.401 1.59068 83.3924 1.81172 83.4414 1.88802C83.4905 1.96444 83.6295 2.1754 83.5509 2.23782C83.4724 2.30029 83.5013 2.48228 83.6891 2.479C83.8769 2.47578 83.9496 2.32252 83.8828 2.27108C83.816 2.21952 83.7588 1.99365 83.8566 1.92313C83.9545 1.85261 83.8778 1.55092 83.6383 1.57089Z" fill="#F59C00"/>
<path d="M84.8458 2.08429C84.6108 2.02963 84.463 2.25502 84.5246 2.40851C84.5863 2.56201 84.4725 2.60314 84.3225 2.61787C84.1724 2.63253 84.192 2.78639 84.3726 2.82501C84.5532 2.86364 84.6172 2.7604 84.6497 2.70651C84.6822 2.65268 84.8677 2.47254 84.9905 2.43796C85.1133 2.40345 85.0956 2.14241 84.8458 2.08429Z" fill="#F59C00"/>
<path d="M86.6738 4.50079C86.4387 4.37597 86.286 4.47236 86.1621 4.51617C86.0382 4.55998 85.6941 4.4379 85.8368 4.63128C85.9795 4.82466 86.1851 4.79986 86.2225 4.74746C86.2598 4.69506 86.7711 4.81917 86.8264 4.7561C86.8817 4.69298 86.8709 4.60535 86.6738 4.50079Z" fill="#F59C00"/>
<path d="M83.7079 2.92889C83.7079 2.92889 84.6997 2.77414 84.4201 3.73768C84.8004 3.98775 85.5306 4.37784 85.3869 4.70737C85.2431 5.03696 83.9158 5.01293 83.7383 4.8409C83.5607 4.66886 82.9261 4.33331 83.1144 4.04432C83.3733 3.83783 83.717 3.77011 83.7223 3.59408C83.7276 3.41811 82.9442 3.07815 82.8039 3.27272C82.7711 3.42812 83.2299 3.59247 83.1881 3.68207C83.1463 3.77166 82.805 4.07848 82.9255 4.22393C82.9299 4.38458 82.1343 4.36866 81.87 3.97863C81.6056 3.58866 81.4318 2.89836 81.6475 2.73348C81.8632 2.56854 83.567 2.27412 83.7079 2.92889Z" fill="#F59C00"/>
<path d="M66.9283 30.9281C66.8029 30.7532 66.1887 30.7385 66.4566 31.1351C66.7245 31.5317 66.9606 32.4958 67.2128 32.5098C67.465 32.524 67.2236 32.043 67.1326 31.7384C67.0418 31.4339 66.9283 30.9281 66.9283 30.9281Z" fill="#F59C00"/>
<path d="M67.8976 30.4872C67.6092 30.4883 67.6151 31.0375 67.7682 31.2919C67.9213 31.5463 67.7033 32.0138 67.9024 32.1973C68.1015 32.3807 68.3416 32.3374 68.287 32.0661C68.2324 31.7948 68.1791 31.3819 68.2527 31.1962C68.3263 31.0106 68.3383 30.4857 67.8976 30.4872Z" fill="#F59C00"/>
<path d="M69.0846 30.7433C68.7589 30.7567 68.7937 31.4227 68.912 31.7237C69.0304 32.0247 68.7319 32.7205 69.0456 32.6304C69.3592 32.5403 69.1275 31.9277 69.279 31.7137C69.4305 31.4998 69.4671 30.7276 69.0846 30.7433Z" fill="#F59C00"/>
<path d="M70.6184 31.7093C70.3129 31.592 70.01 32.1158 70.0738 32.3673C70.1377 32.6189 69.6577 32.7957 69.8333 33.0395C70.009 33.2834 70.2668 33.1189 70.3538 32.849C70.4409 32.5791 70.7093 32.6137 70.7461 32.4239C70.7829 32.234 70.8749 31.8077 70.6184 31.7093Z" fill="#F59C00"/>
<path d="M71.6551 34.7753C71.2803 34.6911 71.1374 35.2196 71.5213 35.2563C71.9053 35.2931 72.3763 35.4739 72.4393 35.2704C72.5024 35.0669 72.5035 34.7872 72.2043 34.846C71.9052 34.9049 71.6551 34.7753 71.6551 34.7753Z" fill="#F59C00"/>
<path d="M69.8818 34.2917C69.6427 34.0967 70.0675 33.6856 69.8811 33.4305C69.6947 33.1753 69.5263 33.4591 69.0608 33.1256C68.5953 32.7921 67.5787 32.6415 67.3766 32.9364C67.1908 33.2073 67.4269 33.4351 67.4665 33.4703C67.902 33.7386 68.3519 33.9908 68.8164 34.2252C68.5965 34.0043 68.4154 33.6781 68.5651 33.606C68.7153 33.5337 69.1772 33.9303 69.2072 34.199C69.2266 34.3735 69.1324 34.3707 69.0638 34.3473C69.152 34.3901 69.2398 34.4335 69.3291 34.4751C69.8003 34.6948 70.2763 34.8912 70.7557 35.0673C70.8753 34.7507 70.1206 34.4865 69.8818 34.2917Z" fill="#F59C00"/>
<path d="M74.6558 7.90259L75.1721 7.70116L74.6452 6.75812L74.6046 6.43622C74.893 6.35837 75.0946 6.15766 75.0755 5.93955C75.053 5.68078 74.7298 5.49765 74.3538 5.53056C73.9779 5.56346 73.6915 5.79988 73.7142 6.05865C73.7223 6.1517 73.7703 6.23432 73.8446 6.30127L73.6467 6.30955L72.9304 5.58433L72.1748 4.17746L72.1646 3.93025C72.6105 3.85759 72.9393 3.61193 72.9163 3.34857C72.8912 3.06196 72.461 2.86555 71.9554 2.90978C71.4498 2.95401 71.0602 3.22214 71.0853 3.50875C71.0927 3.59381 71.1392 3.66946 71.2095 3.73473L68.6325 4.77076L68.8189 5.28288L70.224 4.71348L67.5708 7.55828L68.1115 7.96709L69.7086 6.29304L69.1065 8.16768L69.876 8.30472L70.6918 5.93514L71.5799 4.86954L72.0151 5.90587L72.4985 5.92715L73.3414 6.74548L71.4912 8.88974L71.9043 9.1708L72.9926 8.11355L72.6646 9.43696L73.2715 9.48519L73.6491 7.90944L74.2355 7.1624L74.6558 7.90259Z" fill="#793282"/>
<path d="M66.727 26.0779L65.8933 24.7707L65.8635 24.5285C65.9725 24.4055 66.0462 24.2224 66.0527 24.013C66.0646 23.6326 65.8543 23.3173 65.5831 23.3089C65.3119 23.3004 65.0825 23.6021 65.0706 23.9825L65.0708 23.9866L64.255 22.8405L63.5367 20.9456L63.3816 20.3007C63.6379 20.1637 63.8263 19.8229 63.8388 19.4175C63.8555 18.882 63.5596 18.4382 63.1778 18.4264C62.7961 18.4145 62.4731 18.839 62.4564 19.3745C62.4525 19.502 62.4667 19.6239 62.4951 19.7364L61.4535 20.31L61.3989 21.1816L62.1693 20.9252L61.9439 22.3606L61.2124 23.9292L61.7338 24.4056L62.3592 23.0644L62.4747 24.9114L63.0969 25.464L62.9601 22.5574L63.2024 21.6937L63.6369 22.9503L64.8851 24.4318L64.9612 25.4878L64.2646 26.3875L64.6574 26.7019L65.1705 26.0081L65.2267 27.2006L65.6938 27.4184L65.7362 25.2952L66.3487 26.2952L66.727 26.0779Z" fill="#793282"/>
<path d="M93.4233 16.2022L94.1288 15.9189L94.1077 16.7352L93.103 19.1921L93.4951 19.6956L94.1763 18.2347L94.0219 19.9413L94.3788 20.0203L94.7426 16.8952L95.0562 18.1162C95.0575 16.6839 94.8883 15.2641 94.5584 13.8864C94.5365 13.8797 94.5142 13.8763 94.4915 13.8772C94.3025 13.885 94.1606 14.164 94.1744 14.5004C94.1803 14.6452 94.2153 14.7752 94.2669 14.8778L93.2527 15.5496L93.4233 16.2022Z" fill="#793282"/>
<path d="M82.8743 34.2744C80.5325 33.9941 78.0727 33.4437 75.5774 32.6166C76.9381 30.6972 78.3054 28.495 79.6253 26.0977C82.2764 27.1362 84.8392 27.9836 87.2078 28.6056C85.8803 30.7242 84.4165 32.6276 82.8743 34.2744ZM75.3367 32.5349C73.884 32.0434 72.4202 31.4594 70.9615 30.7792C69.4506 30.0747 68.0148 29.3001 66.6635 28.4708C67.2587 26.1869 68.0698 23.7121 69.0635 21.1464C70.7669 22.0851 72.5653 22.9992 74.4296 23.8686C76.1002 24.6476 77.7638 25.3617 79.3969 26.007C78.0725 28.4105 76.7008 30.6165 75.3367 32.5349ZM60.4893 23.7692C60.7658 21.5138 61.2916 19.1531 62.0737 16.759C64.0484 18.1929 66.3425 19.6358 68.8484 21.0265C67.8563 23.585 67.0451 26.0543 66.4468 28.3365C64.206 26.9422 62.2042 25.397 60.4893 23.7692ZM63.9537 12.0047C64.6516 10.5081 65.419 9.08573 66.2406 7.74598C68.6163 8.33488 71.2088 9.16597 73.9006 10.1971C72.9667 11.8939 72.0565 13.6854 71.1903 15.5431C70.3655 17.3119 69.611 19.0733 68.9369 20.7969C66.4241 19.401 64.1274 17.9531 62.1541 16.5154C62.6537 15.0178 63.2525 13.5084 63.9537 12.0047ZM70.7214 1.80769C73.0884 2.07642 75.5785 2.62203 78.1067 3.45229C76.7349 5.36669 75.3543 7.57508 74.0202 9.98192C71.3364 8.95262 68.7491 8.12016 66.3753 7.52769C67.7047 5.39011 69.1732 3.46982 70.7214 1.80769ZM78.3484 3.53265C79.8364 4.03147 81.3364 4.62781 82.831 5.32478C84.2737 5.99749 85.6473 6.73439 86.9447 7.52143C86.3657 9.79844 85.5641 12.2751 84.5802 14.8449C83.0414 14.0119 81.4309 13.1997 79.7666 12.4236C77.9085 11.5572 76.0584 10.7694 74.2502 10.0697C75.5887 7.6574 76.9735 5.44531 78.3484 3.53265ZM82.1197 20.6396C81.2864 22.4267 80.4126 24.1537 79.5162 25.7921C77.8782 25.1456 76.2091 24.4294 74.5327 23.6476C72.6622 22.7755 70.8589 21.8582 69.1516 20.9165C69.8269 19.1882 70.5836 17.4209 71.4113 15.6461C72.2804 13.7823 73.1938 11.9856 74.1307 10.285C75.9437 10.9857 77.7993 11.7753 79.6636 12.6445C81.3337 13.4234 82.9495 14.2384 84.4923 15.0744C83.7884 16.8967 82.9946 18.7634 82.1197 20.6396ZM93.172 12.2097C92.9001 14.4486 92.3818 16.7919 91.6113 19.169C89.6071 17.7505 87.3038 16.3283 84.7965 14.9616C85.7788 12.3991 86.5798 9.92857 87.1621 7.65323C89.4198 9.04168 91.4395 10.5834 93.172 12.2097ZM89.7028 24.0117C88.9844 25.5523 88.1928 27.0152 87.3437 28.3892C84.9727 27.7703 82.4038 26.9234 79.7446 25.8828C80.6386 24.2476 81.5097 22.5247 82.3407 20.7426C83.2132 18.8716 84.0055 17.0095 84.7087 15.191C87.2226 16.5626 89.5294 17.9898 91.5326 19.4119C91.0272 20.9387 90.4179 22.4782 89.7028 24.0117ZM84.6928 34.4373C84.1914 34.4067 83.6839 34.3641 83.1698 34.3074C84.6954 32.663 86.1422 30.7711 87.4544 28.6699C88.5014 28.9394 89.5113 29.1666 90.4696 29.3427C90.6652 29.3786 90.8567 29.4115 91.0463 29.443C91.1047 29.3704 91.1635 29.2982 91.221 29.2246C90.9894 29.1872 90.7541 29.1471 90.5136 29.1029C89.5831 28.932 88.604 28.7129 87.5891 28.4532C88.4289 27.0896 89.2124 25.6404 89.9238 24.1147C90.6319 22.5962 91.236 21.0717 91.7393 19.5588C92.5898 20.1689 93.3864 20.7776 94.1148 21.38C94.3034 21.5359 94.4852 21.6904 94.6628 21.8438C94.6822 21.7524 94.6997 21.6609 94.7178 21.5695C94.5717 21.4445 94.4235 21.319 94.2702 21.1923C93.52 20.5718 92.6976 19.9448 91.8191 19.3166C92.5861 16.9624 93.1066 14.6395 93.3873 12.4148C93.759 12.7702 94.1158 13.1297 94.4597 13.492C94.4171 13.3305 94.3719 13.1697 94.3249 13.0094C94.0334 12.7104 93.7341 12.4134 93.4238 12.1196C93.4735 11.6951 93.5126 11.2752 93.5447 10.8586C93.478 10.7056 93.4095 10.5534 93.3386 10.4021C93.307 10.9007 93.2635 11.4053 93.2062 11.916C91.4746 10.3055 89.4654 8.78053 87.2242 7.40686C87.4422 6.53684 87.6292 5.69484 87.7803 4.88962C87.8549 4.49196 87.9197 4.10771 87.9758 3.73562C87.9021 3.67917 87.8287 3.62236 87.7539 3.56692C87.6941 3.97734 87.6235 4.40296 87.5406 4.84461C87.3948 5.62235 87.2144 6.43527 87.0057 7.27405C85.72 6.4969 84.3606 5.769 82.9341 5.1038C81.4554 4.41429 79.9714 3.82331 78.4984 3.32693C79.0104 2.62233 79.5208 1.95672 80.0264 1.34064C80.2932 1.01553 80.5564 0.706799 80.8153 0.414766C80.724 0.394797 80.6326 0.375961 80.541 0.357422C80.3099 0.620961 80.0757 0.896241 79.8379 1.18601C79.3145 1.82379 78.7861 2.51318 78.2559 3.24508C75.7503 2.41798 73.2795 1.86867 70.9254 1.59005C71.188 1.31328 71.4533 1.04623 71.7199 0.784473C71.5533 0.835142 71.3872 0.887477 71.2221 0.942795C71.023 1.14387 70.8248 1.34792 70.628 1.55727C70.3564 1.52764 70.0868 1.5026 69.8185 1.48019C69.6656 1.546 69.5137 1.6139 69.3626 1.68388C69.7141 1.70844 70.0679 1.73735 70.4257 1.77461C68.8931 3.43548 67.4407 5.34582 66.1258 7.46778C65.2985 7.26588 64.4957 7.09086 63.7267 6.94965C63.424 6.89403 63.1289 6.84402 62.8407 6.79901C62.7824 6.87215 62.7244 6.94547 62.6671 7.01969C62.9964 7.0694 63.3343 7.12538 63.6826 7.18934C64.4236 7.32543 65.1969 7.49359 65.9925 7.68637C65.1811 9.01414 64.4229 10.4217 63.7328 11.9017C63.0393 13.3888 62.446 14.8816 61.949 16.3636C61.2891 15.8775 60.6626 15.3927 60.0814 14.9121C59.8085 14.6864 59.5484 14.4636 59.2987 14.2432C59.2786 14.3348 59.2597 14.4265 59.2412 14.5181C59.461 14.7099 59.6889 14.9038 59.9261 15.1C60.5292 15.5988 61.1802 16.1019 61.8675 16.6065C61.0881 18.9793 60.5594 21.3213 60.274 23.5639C60.0132 23.3119 59.7617 23.0574 59.5149 22.8019C59.5585 22.9626 59.6041 23.1227 59.652 23.2822C59.8436 23.4753 60.038 23.6677 60.2375 23.8587C60.2034 24.147 60.1747 24.4331 60.1487 24.7179C60.2125 24.88 60.2794 25.0411 60.3479 25.2014C60.3769 24.8258 60.4108 24.4478 60.4542 24.0656C62.1676 25.6766 64.159 27.2041 66.382 28.5827C66.1313 29.5584 65.9188 30.5 65.7506 31.3962C65.7016 31.6576 65.657 31.9128 65.616 32.1632C65.6888 32.2218 65.7612 32.2807 65.835 32.3383C65.8814 32.0465 65.9327 31.7479 65.9903 31.4413C66.1534 30.5721 66.3578 29.6605 66.599 28.7158C67.9398 29.536 69.3623 30.3026 70.8584 31.0002C72.3024 31.6735 73.7515 32.2528 75.1905 32.7419C74.6254 33.5284 74.0621 34.2658 73.5045 34.9452C73.2889 35.208 73.0759 35.4587 72.8653 35.6999C72.9556 35.721 73.046 35.7414 73.1363 35.761C73.3198 35.5488 73.5054 35.3285 73.693 35.0998C74.2679 34.3994 74.8488 33.6368 75.4313 32.8235C77.9036 33.647 80.3427 34.1996 82.6709 34.4892C82.314 34.8635 81.9527 35.2229 81.5885 35.5693C81.7503 35.5265 81.9113 35.4811 82.0718 35.4338C82.3726 35.1398 82.6715 34.838 82.9671 34.5251C83.3945 34.5744 83.8171 34.6131 84.2363 34.6445C84.3893 34.5774 84.5416 34.5086 84.6928 34.4373Z" fill="#D8E7BB"/>
<path d="M82.9303 34.4595C80.5793 34.1835 78.1108 33.6356 75.6075 32.8088C77.0346 30.8204 78.4717 28.5142 79.8561 25.9959C82.5292 27.0345 85.1066 27.8786 87.4749 28.489C86.0896 30.7306 84.5523 32.7367 82.9303 34.4595ZM75.3666 32.7272C73.9052 32.2346 72.4329 31.6481 70.9661 30.964C69.4992 30.28 68.1035 29.5292 66.7867 28.7264C67.3891 26.3541 68.2324 23.7651 69.2731 21.0791C70.8977 21.9648 72.6074 22.8285 74.3754 23.6529C76.1434 24.4774 77.9038 25.2319 79.6266 25.907C78.238 28.4307 76.7966 30.741 75.3666 32.7272ZM60.598 24.0458C60.8753 21.6959 61.4238 19.2288 62.2505 16.7267C64.2404 18.1484 66.5437 19.5803 69.0575 20.9605C68.0183 23.6397 67.1753 26.2231 66.5695 28.5942C64.327 27.2081 62.3207 25.6694 60.598 24.0458ZM64.0963 12.0833C64.7807 10.6157 65.5318 9.21941 66.3348 7.90189C68.7039 8.50896 71.2869 9.35322 73.9667 10.3932C73.0815 12.0147 72.2188 13.7216 71.3956 15.487C70.5724 17.2524 69.8194 19.0105 69.1462 20.7309C66.6269 19.3466 64.3199 17.9106 62.332 16.4859C62.8251 15.0239 63.412 13.551 64.0963 12.0833ZM71.0114 1.71413C73.3625 1.99024 75.8309 2.53807 78.3342 3.36492C76.9071 5.35324 75.4699 7.65951 74.0856 10.1778C71.4125 9.13923 68.835 8.2952 66.4668 7.68467C67.8521 5.44307 69.3895 3.43699 71.0114 1.71413ZM78.575 3.44641C80.0364 3.93909 81.5086 4.5256 82.9756 5.20958C84.4425 5.89361 85.8381 6.64446 87.1549 7.44724C86.5526 9.81951 85.7093 12.4085 84.6685 15.0946C83.0439 14.2088 81.3344 13.3452 79.5663 12.5208C77.7983 11.6964 76.0378 10.9418 74.315 10.2667C75.7037 7.74284 77.1449 5.4327 78.575 3.44641ZM82.3252 20.5835C81.4993 22.3547 80.6338 24.0668 79.7457 25.6921C78.0183 25.0159 76.2522 24.2591 74.4784 23.432C72.7046 22.6048 70.9896 21.7384 69.3612 20.8497C70.0354 19.1248 70.7907 17.3612 71.6166 15.5901C72.4425 13.8189 73.308 12.1068 74.1959 10.4816C75.9234 11.1578 77.6895 11.9146 79.4633 12.7418C81.2371 13.5689 82.952 14.4353 84.5805 15.324C83.9063 17.0489 83.151 18.8124 82.3252 20.5835ZM93.3437 12.1279C93.0665 14.4779 92.518 16.945 91.6912 19.4471C89.7013 18.0253 87.398 16.5934 84.8841 15.2132C85.9234 12.534 86.7663 9.95065 87.3722 7.5794C89.6146 8.96559 91.6211 10.5044 93.3437 12.1279ZM89.8455 24.0903C89.1611 25.5579 88.41 26.9543 87.607 28.2718C85.2377 27.6648 82.6548 26.8205 79.9749 25.7804C80.8601 24.1589 81.7228 22.452 82.5461 20.6865C83.3693 18.9212 84.1223 17.1631 84.7955 15.4428C87.3148 16.8272 89.6218 18.2631 91.6098 19.6878C91.1166 21.1498 90.5298 22.6227 89.8455 24.0903ZM84.3578 34.5918C83.9836 34.565 83.607 34.533 83.226 34.4918C84.8312 32.7706 86.351 30.7761 87.7208 28.5521C88.6082 28.7762 89.4663 28.9679 90.2866 29.1231C90.5912 29.1806 90.8879 29.2323 91.1776 29.2792C91.2348 29.2063 91.291 29.1324 91.3473 29.0585C91.0182 29.007 90.6803 28.9492 90.3319 28.8834C89.5389 28.7335 88.7099 28.5484 87.8538 28.3336C88.6471 27.0276 89.3894 25.6452 90.0664 24.1933C90.7434 22.7416 91.3252 21.2844 91.8158 19.8371C92.5306 20.355 93.2053 20.8711 93.8298 21.3822C94.1042 21.6067 94.3656 21.8284 94.6167 22.0474C94.6371 21.9568 94.6575 21.8662 94.6765 21.7756C94.4545 21.5837 94.2242 21.3898 93.9843 21.1935C93.3382 20.6646 92.6397 20.1306 91.8977 19.5948C92.7208 17.116 93.2718 14.6697 93.5585 12.3337C93.835 12.599 94.1016 12.8671 94.3628 13.1365C94.3157 12.9714 94.2655 12.8073 94.2138 12.6437C94.0112 12.4404 93.8055 12.2377 93.5942 12.0369C93.627 11.7474 93.6545 11.4604 93.6793 11.1746C93.6137 11.0161 93.5467 10.8584 93.4767 10.7018C93.4496 11.0755 93.4175 11.4517 93.3761 11.8322C91.6548 10.2251 89.6594 8.70366 87.434 7.33273C87.65 6.4692 87.8357 5.63317 87.9857 4.8335C88.0476 4.50349 88.1024 4.1832 88.1516 3.87072C88.0787 3.81355 88.0047 3.75752 87.9309 3.70137C87.8773 4.05283 87.8162 4.41478 87.7461 4.78849C87.6012 5.56056 87.4222 6.36746 87.2156 7.19968C85.9105 6.40686 84.5292 5.66506 83.0786 4.98866C81.6279 4.3122 80.1719 3.73088 78.7257 3.24082C79.2304 2.54749 79.7334 1.89177 80.2317 1.28452C80.4729 0.99057 80.711 0.711114 80.9458 0.444118C80.8552 0.423672 80.7647 0.402986 80.6741 0.383911C80.4664 0.622473 80.2562 0.870336 80.0432 1.12989C79.5271 1.75884 79.006 2.43846 78.4833 3.15891C76.0028 2.33545 73.5547 1.78482 71.2172 1.49917C71.4821 1.22293 71.7496 0.956412 72.0185 0.695437C71.8537 0.74247 71.6897 0.792601 71.5262 0.844223C71.3231 1.04685 71.1209 1.2525 70.9202 1.4637C70.6304 1.43098 70.3431 1.40362 70.0569 1.37906C69.8984 1.44463 69.7404 1.51175 69.5837 1.58179C69.958 1.60868 70.3348 1.64063 70.7158 1.68188C69.1105 3.40308 67.5907 5.39759 66.2209 7.6216C65.3336 7.39753 64.4756 7.20581 63.6552 7.05077C63.3506 6.99319 63.0538 6.94139 62.764 6.89453C62.7068 6.96738 62.6505 7.0413 62.5943 7.11515C62.9235 7.16666 63.2613 7.22454 63.6099 7.29041C64.4027 7.44021 65.2318 7.62536 66.0879 7.84008C65.2946 9.14608 64.5524 10.5285 63.8754 11.9802C63.1984 13.4321 62.6165 14.8893 62.126 16.3366C61.4111 15.8187 60.7364 15.3026 60.112 14.7916C59.8375 14.567 59.5761 14.3453 59.325 14.1262C59.3046 14.2168 59.2841 14.3074 59.2651 14.398C59.4872 14.5899 59.7176 14.784 59.9576 14.9804C60.6037 15.5091 61.3021 16.0432 62.0441 16.5789C61.2209 19.0578 60.6699 21.5041 60.3833 23.8401C60.1068 23.5747 59.8401 23.3067 59.579 23.0373C59.6261 23.2023 59.6762 23.3665 59.7279 23.5301C59.9306 23.7335 60.1362 23.936 60.3476 24.1369C60.3147 24.4264 60.2872 24.7134 60.2625 24.9992C60.3281 25.1576 60.3951 25.3154 60.4651 25.472C60.4921 25.0983 60.5243 24.7221 60.5657 24.3417C62.287 25.9487 64.2823 27.4701 66.5076 28.8409C66.2916 29.7045 66.106 30.5405 65.956 31.3402C65.8941 31.6702 65.8393 31.9903 65.7901 32.3027C65.863 32.3599 65.9369 32.416 66.0109 32.4722C66.0643 32.1208 66.1255 31.7589 66.1956 31.3852C66.3404 30.6131 66.5194 29.8062 66.7262 28.974C68.0311 29.7668 69.4124 30.5086 70.863 31.185C72.3137 31.8614 73.7698 32.4428 75.2159 32.9329C74.7113 33.6262 74.2083 34.2819 73.7099 34.8891C73.4687 35.1831 73.2308 35.4625 72.996 35.7294C73.0865 35.7499 73.177 35.7705 73.2676 35.7896C73.4753 35.5511 73.6854 35.3033 73.8984 35.0438C74.4146 34.4149 74.9356 33.7353 75.4583 33.0147C77.9389 33.8383 80.387 34.3888 82.7245 34.6744C82.4597 34.9507 82.1922 35.2171 81.9233 35.478C82.0883 35.431 82.2523 35.3809 82.4158 35.3292C82.6187 35.1266 82.8209 34.9211 83.0215 34.7099C83.3113 34.7427 83.5986 34.77 83.8846 34.7945C84.0432 34.729 84.2011 34.6619 84.3578 34.5918Z" fill="#0B331F"/>
<defs>
<radialGradient id="paint0_radial_30_1160" cx="0" cy="0" r="1" gradientUnits="userSpaceOnUse" gradientTransform="translate(74.1139 10.2986) rotate(70.7784) scale(22.5679 22.5679)">
<stop stop-color="#D8E7BB"/>
<stop offset="0.7" stop-color="#006634"/>
<stop offset="1" stop-color="#004B24"/>
</radialGradient>
</defs>
</svg>
