<svg width="12" height="12" viewBox="0 0 12 12" fill="none" xmlns="http://www.w3.org/2000/svg">
<path d="M4.61248 1.69846C4.44374 1.27661 4.03518 1 3.58084 1H2.05263C1.47128 1 1 1.47117 1 2.05252C1 6.99402 5.00599 11 9.94749 11C10.5288 11 11 10.5287 11 9.94733L11.0003 8.41887C11.0003 7.96453 10.7237 7.55604 10.3019 7.3873L8.83719 6.80164C8.45826 6.65007 8.02683 6.71828 7.71331 6.97955L7.33529 7.29483C6.89382 7.66272 6.24424 7.63346 5.83789 7.22711L4.77346 6.1617C4.36711 5.75535 4.33708 5.1063 4.70497 4.66483L5.02019 4.28683C5.28146 3.97331 5.35028 3.54176 5.19871 3.16283L4.61248 1.69846Z" fill="#7FC6FF" stroke="#001836" stroke-width="0.75" stroke-linecap="round" stroke-linejoin="round"/>
</svg>
