<svg width="44" height="44" viewBox="0 0 44 44" fill="none" xmlns="http://www.w3.org/2000/svg">
<path fill-rule="evenodd" clip-rule="evenodd" d="M21.707 28.707C21.3165 29.0975 20.6834 29.0975 20.2928 28.707L14.2928 22.707C13.9023 22.3165 13.9023 21.6833 14.2928 21.2928L20.2928 15.2928C20.6834 14.9023 21.3165 14.9023 21.707 15.2928C22.0976 15.6833 22.0976 16.3165 21.707 16.707L17.4142 20.9999H28.9999C29.5522 20.9999 29.9999 21.4476 29.9999 21.9999C29.9999 22.5522 29.5522 22.9999 28.9999 22.9999L17.4142 22.9999L21.707 27.2928C22.0976 27.6833 22.0976 28.3165 21.707 28.707Z" fill="black"/>
<rect x="43.5" y="43.5" width="43" height="43" rx="21.5" transform="rotate(-180 43.5 43.5)" stroke="black"/>
</svg>
