<svg width="11" height="12" viewBox="0 0 11 12" fill="none" xmlns="http://www.w3.org/2000/svg">
<path d="M3.90582 4.33333H2.77789C2.15561 4.33333 1.84423 4.33333 1.60655 4.45444C1.39748 4.56096 1.22763 4.73082 1.1211 4.93989C1 5.17757 1 5.48894 1 6.11122V9.22233C1 9.84461 1 10.1556 1.1211 10.3933C1.22763 10.6023 1.39748 10.7725 1.60655 10.879C1.844 11 2.15501 11 2.77608 11H8.11283C8.73389 11 9.04444 11 9.28189 10.879C9.49095 10.7725 9.66138 10.6023 9.7679 10.3933C9.88889 10.1558 9.88889 9.84527 9.88889 9.22421V6.10939C9.88889 5.48833 9.88889 5.17733 9.7679 4.93989C9.66138 4.73082 9.49096 4.56096 9.28189 4.45444C9.04421 4.33333 8.7335 4.33333 8.11122 4.33333H6.98274M3.90582 4.33333H6.98274M3.90582 4.33333C3.83501 4.33333 3.77778 4.27593 3.77778 4.20513V2.66667C3.77778 1.74619 4.52397 1 5.44444 1C6.36492 1 7.11111 1.74619 7.11111 2.66667V4.20513C7.11111 4.27593 7.05354 4.33333 6.98274 4.33333" stroke="#153F8F" stroke-linecap="round" stroke-linejoin="round"/>
</svg>
