<svg width="45" height="44" viewBox="0 0 45 44" fill="none" xmlns="http://www.w3.org/2000/svg">
<path fill-rule="evenodd" clip-rule="evenodd" d="M22.8486 15.2929C23.2392 14.9024 23.8723 14.9024 24.2629 15.2929L30.2629 21.2929C30.6534 21.6834 30.6534 22.3166 30.2629 22.7071L24.2629 28.7071C23.8723 29.0976 23.2392 29.0976 22.8486 28.7071C22.4581 28.3166 22.4581 27.6834 22.8486 27.2929L27.1415 23L15.5558 23C15.0035 23 14.5558 22.5523 14.5558 22C14.5558 21.4477 15.0035 21 15.5558 21H27.1415L22.8486 16.7071C22.4581 16.3166 22.4581 15.6834 22.8486 15.2929Z" fill="black"/>
<rect x="1.05566" y="0.5" width="43" height="43" rx="21.5" stroke="black"/>
</svg>
