<svg width="25" height="20" viewBox="0 0 25 20" fill="none" xmlns="http://www.w3.org/2000/svg">
<path d="M0.984131 8.71429V14.886C0.984131 16.3261 0.984131 17.0458 1.2644 17.5958C1.51093 18.0797 1.90402 18.4735 2.38787 18.72C2.93739 19 3.65712 19 5.09444 19H20.0167C21.454 19 22.1727 19 22.7222 18.72C23.2061 18.4735 23.6005 18.0797 23.847 17.5958C24.127 17.0463 24.127 16.3276 24.127 14.8903V8.71429M0.984131 8.71429V6.14286M0.984131 8.71429H24.127M0.984131 6.14286V5.11454C0.984131 3.6744 0.984131 2.9538 1.2644 2.40374C1.51093 1.91989 1.90402 1.5268 2.38787 1.28027C2.93793 1 3.65853 1 5.09867 1H20.013C21.4531 1 22.1722 1 22.7222 1.28027C23.2061 1.5268 23.6005 1.91989 23.847 2.40374C24.127 2.95326 24.127 3.67299 24.127 5.11031V6.14286M0.984131 6.14286H24.127M6.12699 13.8571H11.2698M24.127 8.71429V6.14286" stroke="#F58423" stroke-linecap="round" stroke-linejoin="round"/>
</svg>
