<svg width="81" height="81" viewBox="0 0 81 81" fill="none" xmlns="http://www.w3.org/2000/svg">
<path d="M64.5001 33L51.4501 19.95C50.2501 18.75 48.3001 18.75 47.2501 19.95L35.4001 31.8001L34.2001 30.6C33.0001 29.4 31.0501 29.4 30.0001 30.6L16.5001 43.8C15.3001 45 15.3001 46.95 16.5001 48L29.5501 61.05C30.7501 62.25 32.7001 62.25 33.7501 61.05L45.6001 49.2L46.8001 50.4C48.0001 51.6 49.9501 51.6 51.0001 50.4L64.2001 37.2C65.7001 36 65.7001 34.05 64.5001 33ZM20.8501 47.85C20.5501 48.15 20.1001 48.15 19.8001 47.85L19.2001 47.25C18.3001 46.35 18.3001 45 19.2001 44.1L19.6501 43.65C19.9501 43.35 20.4001 43.35 20.7001 43.65C21.0001 43.95 21.0001 44.4 20.7001 44.7L20.2501 45.15C19.9501 45.45 19.9501 46.05 20.2501 46.35L20.8501 46.95C21.1501 47.1 21.1501 47.55 20.8501 47.85ZM33.9001 57.75L33.3001 58.35C32.4001 59.2501 31.0501 59.2501 30.1501 58.35L29.7001 57.9C29.4001 57.6 29.4001 57.15 29.7001 56.85C30.0001 56.55 30.4501 56.55 30.7501 56.85L31.2001 57.3C31.5001 57.6 32.1001 57.6 32.4001 57.3L33.0001 56.7C33.3001 56.4 33.7501 56.4 34.0501 56.7C34.2001 57 34.2001 57.45 33.9001 57.75ZM33.7501 43.05C31.6501 40.95 31.6501 37.5 33.7501 35.4L41.4001 43.05C39.3001 45.15 35.8501 45.15 33.7501 43.05ZM44.1001 38.1C46.2001 40.2 46.2001 43.65 44.1001 45.75L36.4501 38.1C38.5501 36 42.0001 36 44.1001 38.1ZM50.7001 24.3C50.4001 24.6 49.9501 24.6 49.6501 24.3L49.2001 23.85C48.9001 23.55 48.3001 23.55 48.0001 23.85L47.4001 24.45C47.1001 24.75 46.6501 24.75 46.3501 24.45C46.0501 24.15 46.0501 23.7 46.3501 23.4L46.9501 22.8C47.8501 21.9 49.2001 21.9 50.1001 22.8L50.5501 23.25C51.0001 23.7 51.0001 24 50.7001 24.3ZM61.2001 36.9L60.6001 37.5C60.3001 37.8 59.8501 37.8 59.5501 37.5C59.2501 37.2 59.2501 36.75 59.5501 36.45L60.0001 36C60.3001 35.7 60.3001 35.1001 60.0001 34.8001L59.4001 34.2C59.1001 33.9 59.1001 33.45 59.4001 33.15C59.7001 32.85 60.1501 32.85 60.4501 33.15L61.0501 33.75C62.1001 34.65 62.1001 36.15 61.2001 36.9Z" fill="#35A5FF"/>
</svg>
