<svg width="82" height="81" viewBox="0 0 82 81" fill="none" xmlns="http://www.w3.org/2000/svg">
<path d="M33.2163 58.6499C54.3663 58.6499 57.5163 48.8999 57.5163 39.2999H63.5163C63.9663 39.2999 64.2663 38.9999 64.2663 38.5499C64.2663 38.3999 64.1163 38.0999 63.9663 37.9499L53.4663 26.3999C53.1663 26.0999 52.7163 26.0999 52.4163 26.3999L41.9163 37.9499C41.6163 38.2499 41.6163 38.6999 41.9163 38.9999C42.0663 39.1499 42.2163 39.2999 42.5163 39.2999H48.5163C48.5163 48.2999 47.1663 55.4999 33.2163 58.6499Z" fill="#35A5FF"/>
<path d="M49.1164 22.35C27.9664 22.35 24.8164 32.1 24.8164 41.7H18.8164C18.3664 41.7 18.0664 42 18.0664 42.45C18.0664 42.6 18.2164 42.9 18.3664 43.05L28.8664 54.6C29.1664 54.9 29.6164 54.9 29.9164 54.6L40.4164 43.05C40.7164 42.75 40.7164 42.3 40.4164 42C40.2664 41.85 40.1164 41.7 39.8164 41.7H33.8164C33.8164 32.7 35.1664 25.5 49.1164 22.35Z" fill="#35A5FF"/>
</svg>
