<svg width="25" height="25" viewBox="0 0 25 25" fill="none" xmlns="http://www.w3.org/2000/svg">
<path d="M14.9543 12.5571C14.9543 13.8811 13.8811 14.9543 12.5571 14.9543C11.2331 14.9543 10.1598 13.8811 10.1598 12.5571C10.1598 11.2331 11.2331 10.1598 12.5571 10.1598C13.8811 10.1598 14.9543 11.2331 14.9543 12.5571Z" fill="white"/>
<path d="M18.0903 8.27066C17.9754 7.95929 17.7921 7.67746 17.5539 7.44612C17.3225 7.20792 17.0409 7.02461 16.7293 6.9097C16.4767 6.81156 16.0971 6.69475 15.3979 6.66293C14.6416 6.62844 14.4148 6.621 12.5001 6.621C10.5852 6.621 10.3584 6.62825 9.60228 6.66274C8.90313 6.69475 8.52334 6.81156 8.27085 6.9097C7.95929 7.02461 7.67746 7.20792 7.44631 7.44612C7.20811 7.67746 7.0248 7.9591 6.9097 8.27066C6.81156 8.52334 6.69475 8.90313 6.66293 9.60228C6.62844 10.3584 6.621 10.5852 6.621 12.5001C6.621 14.4148 6.62844 14.6416 6.66293 15.3979C6.69475 16.0971 6.81156 16.4767 6.9097 16.7293C7.0248 17.0409 7.20792 17.3225 7.44612 17.5539C7.67746 17.7921 7.9591 17.9754 8.27066 18.0903C8.52334 18.1886 8.90313 18.3054 9.60228 18.3373C10.3584 18.3718 10.585 18.379 12.4999 18.379C14.415 18.379 14.6418 18.3718 15.3977 18.3373C16.0969 18.3054 16.4767 18.1886 16.7293 18.0903C17.3547 17.8491 17.8491 17.3547 18.0903 16.7293C18.1884 16.4767 18.3053 16.0971 18.3373 15.3979C18.3718 14.6416 18.379 14.4148 18.379 12.5001C18.379 10.5852 18.3718 10.3584 18.3373 9.60228C18.3054 8.90313 18.1886 8.52334 18.0903 8.27066ZM12.5001 16.1822C10.4663 16.1822 8.81756 14.5337 8.81756 12.4999C8.81756 10.4661 10.4663 8.81756 12.5001 8.81756C14.5337 8.81756 16.1824 10.4661 16.1824 12.4999C16.1824 14.5337 14.5337 16.1822 12.5001 16.1822ZM16.328 9.53254C15.8528 9.53254 15.4675 9.14723 15.4675 8.67198C15.4675 8.19673 15.8528 7.81142 16.328 7.81142C16.8033 7.81142 17.1886 8.19673 17.1886 8.67198C17.1884 9.14723 16.8033 9.53254 16.328 9.53254Z" fill="white"/>
<path d="M12.5 0C5.5975 0 0 5.5975 0 12.5C0 19.4025 5.5975 25 12.5 25C19.4025 25 25 19.4025 25 12.5C25 5.5975 19.4025 0 12.5 0ZM19.6344 15.4593C19.5997 16.2233 19.4782 16.745 19.3008 17.2016C18.928 18.1658 18.1658 18.928 17.2016 19.3008C16.7452 19.4782 16.2233 19.5995 15.4594 19.6344C14.694 19.6693 14.4495 19.6777 12.5002 19.6777C10.5507 19.6777 10.3064 19.6693 9.54075 19.6344C8.77686 19.5995 8.255 19.4782 7.79858 19.3008C7.31945 19.1206 6.88572 18.8381 6.52714 18.4729C6.16207 18.1145 5.87959 17.6805 5.69935 17.2016C5.52197 16.7452 5.40047 16.2233 5.36575 15.4594C5.33047 14.6938 5.32227 14.4493 5.32227 12.5C5.32227 10.5507 5.33047 10.3062 5.36556 9.54075C5.40028 8.77666 5.52158 8.255 5.69897 7.79839C5.87921 7.31945 6.16188 6.88553 6.52714 6.52714C6.88553 6.16188 7.31945 5.8794 7.79839 5.69916C8.255 5.52177 8.77666 5.40047 9.54075 5.36556C10.3062 5.33066 10.5507 5.32227 12.5 5.32227C14.4493 5.32227 14.6938 5.33066 15.4593 5.36575C16.2233 5.40047 16.745 5.52177 17.2016 5.69897C17.6805 5.87921 18.1145 6.16188 18.4731 6.52714C18.8381 6.88572 19.1208 7.31945 19.3008 7.79839C19.4784 8.255 19.5997 8.77666 19.6346 9.54075C19.6695 10.3062 19.6777 10.5507 19.6777 12.5C19.6777 14.4493 19.6695 14.6938 19.6344 15.4593Z" fill="white"/>
</svg>
