<svg width="27" height="27" viewBox="0 0 27 27" fill="none" xmlns="http://www.w3.org/2000/svg">
<path d="M6.8871 19.2258H9.95161V18.8226H10.3548V9.70968H6.8871V19.2258ZM20.5161 19.2258V14.0645C20.5161 12.8883 20.3992 11.7569 19.8694 10.916C19.314 10.0347 18.3615 9.55169 16.9023 9.54839C16.0815 9.4896 15.3147 9.77113 14.7097 10.2661V9.70968H11.4032V19.3065H14.871V14.629C14.871 14.077 14.9333 13.5998 15.1137 13.2703C15.1994 13.1139 15.3089 12.9962 15.4507 12.9148C15.5939 12.8328 15.7939 12.7742 16.0806 12.7742C16.3586 12.7742 16.5296 12.8387 16.6407 12.9171C16.7527 12.9962 16.8393 13.1145 16.9041 13.2824C17.0431 13.6421 17.0484 14.1246 17.0484 14.629V19.2258H20.5161ZM1 13.5C1 6.62592 6.62592 1 13.5 1C20.4531 1 26 6.62427 26 13.5C26 20.3741 20.3741 26 13.5 26C6.62592 26 1 20.3741 1 13.5ZM6.64516 7.37097C6.64516 8.46731 7.53827 9.3871 8.58065 9.3871C9.72935 9.3871 10.5161 8.3591 10.5161 7.37097C10.5161 6.35577 9.70411 5.43548 8.58065 5.43548C7.56544 5.43548 6.64516 6.24748 6.64516 7.37097Z" fill="white" stroke="white"/>
</svg>
