<svg width="21" height="25" viewBox="0 0 21 25" fill="none" xmlns="http://www.w3.org/2000/svg">
<path d="M17.5622 13.2949C17.5868 11.3473 18.5909 9.54827 20.2225 8.52815C19.1885 7.02637 17.5187 6.10835 15.7168 6.05102C13.8211 5.84866 11.9833 7.20462 11.0172 7.20462C10.0325 7.20462 8.54517 6.07111 6.94354 6.10462C4.83621 6.17386 2.91923 7.36277 1.89397 9.23636C-0.289362 13.0805 1.33921 18.7302 3.43066 21.8375C4.47705 23.3591 5.69999 25.0587 7.30018 24.9984C8.86606 24.9324 9.45088 23.983 11.341 23.983C13.2136 23.983 13.7623 24.9984 15.395 24.9601C17.0753 24.9324 18.1339 23.4318 19.1436 21.8958C19.8954 20.8116 20.4739 19.6134 20.8578 18.3454C18.8621 17.4871 17.5645 15.4985 17.5622 13.2949ZM14.4784 4.00742C15.3945 2.88898 15.8459 1.45141 15.7366 0C14.3369 0.1495 13.044 0.82979 12.1155 1.90532C11.1986 2.96648 10.7341 4.35476 10.8243 5.76438C12.2428 5.77923 13.5895 5.13167 14.4784 4.00742Z" fill="white"/>
</svg>
