<svg width="19" height="24" viewBox="0 0 19 24" fill="none" xmlns="http://www.w3.org/2000/svg">
<path d="M5.76194 18.1111H13.0953M5.76194 14.4444H13.0953M10.6513 1.00107C10.5345 1 10.4032 1 10.2533 1H4.7844C3.41538 1 2.73036 1 2.20747 1.26643C1.74751 1.50079 1.37383 1.87447 1.13948 2.33442C0.873047 2.85731 0.873047 3.54233 0.873047 4.91135V19.0891C0.873047 20.4581 0.873047 21.1423 1.13948 21.6652C1.37383 22.1251 1.74751 22.4995 2.20747 22.7338C2.72985 23 3.41405 23 4.78042 23L14.0768 23C15.4432 23 16.1264 23 16.6488 22.7338C17.1087 22.4995 17.4836 22.1251 17.718 21.6652C17.9842 21.1428 17.9842 20.4596 17.9842 19.0933V8.73139C17.9842 8.58147 17.984 8.4501 17.983 8.33333M10.6513 1.00107C11.0002 1.00425 11.22 1.01719 11.4308 1.0678C11.6802 1.12768 11.9193 1.22643 12.138 1.36046C12.3846 1.51158 12.5964 1.72333 13.0189 2.14583L16.8389 5.96587C17.2617 6.38864 17.4719 6.59944 17.6231 6.84613C17.7571 7.06484 17.8562 7.30331 17.9161 7.55273C17.9667 7.76352 17.9798 7.98444 17.983 8.33333M10.6513 1.00107L10.6508 4.42248C10.6508 5.79149 10.6508 6.47574 10.9173 6.99864C11.1516 7.45859 11.5253 7.83281 11.9852 8.06717C12.5076 8.33333 13.1918 8.33333 14.5582 8.33333H17.983" stroke="#0063DD" stroke-linecap="round" stroke-linejoin="round"/>
</svg>
