<svg width="56" height="47" viewBox="0 0 56 47" fill="none" xmlns="http://www.w3.org/2000/svg">
<path d="M1.33337 46V24.3333H55.5V46M1.33337 33.0833H55.5M34.9792 24.3333V19.6458C34.9792 17.5625 36.75 15.7917 38.8334 15.7917H48.4167C50.5 15.7917 52.2709 17.5625 52.2709 19.6458V24.3333M43.625 24.3333V19.2292M43.625 19.2292L47.1667 15.7917M43.625 19.2292L40.1875 15.7917M16.5417 18.5H22.375V24.3333H16.5417V18.5ZM29.4584 18.5H9.56254C7.89587 18.5 6.64587 17.1458 6.64587 15.5833V3.91667C6.64587 2.25 8.00004 1 9.56254 1H29.4584C31.125 1 32.375 2.35417 32.375 3.91667V15.4792C32.4792 17.1458 31.125 18.5 29.4584 18.5ZM49.5625 8.70833C49.5625 11.9875 46.9042 14.6458 43.625 14.6458C40.3459 14.6458 37.6875 11.9875 37.6875 8.70833C37.6875 5.42914 40.3459 2.77083 43.625 2.77083C46.9042 2.77083 49.5625 5.42914 49.5625 8.70833Z" stroke="#0662AD" stroke-miterlimit="10" stroke-linecap="round"/>
</svg>
