<svg width="46" height="47" viewBox="0 0 46 47" fill="none" xmlns="http://www.w3.org/2000/svg">
<path d="M25.768 12.7772C29.8381 12.7772 33.0422 16.0679 33.0422 20.0514M25.768 7.0618C32.9556 7.0618 38.8442 12.8638 38.8442 20.138M25.768 1C36.3329 1 44.8194 9.57312 44.8194 20.0514M34.7741 32.175C32.9556 30.3565 30.2711 30.0101 28.8855 31.4822L25.0752 35.7255C18.8403 32.7812 13.731 27.7585 10.7867 21.4369L15.03 17.6267C16.5021 16.3277 16.2423 13.6432 14.3372 11.7381L9.05477 6.45562C7.06303 4.46389 4.03213 4.37729 2.99296 6.28243C1.00123 9.74632 0.221852 14.1628 0.91463 19.0988C2.73317 31.5688 14.0774 43.2594 26.634 45.5976C31.9164 46.5501 36.6793 45.7708 40.403 43.6924C42.3947 42.5667 42.2215 39.5358 40.1432 37.544L34.7741 32.175Z" stroke="#0662AD" stroke-miterlimit="10" stroke-linecap="round"/>
</svg>
