<svg width="47" height="47" viewBox="0 0 47 47" fill="none" xmlns="http://www.w3.org/2000/svg">
<path d="M23.5 46C35.9264 46 46 35.9264 46 23.5C46 11.0736 35.9264 1 23.5 1M23.5 46C11.0736 46 1 35.9264 1 23.5C1 11.0736 11.0736 1 23.5 1M23.5 46C29.2831 46 33.9712 35.9264 33.9712 23.5C33.9712 11.0736 29.2831 1 23.5 1M23.5 46C17.7169 46 13.0288 35.9264 13.0288 23.5C13.0288 11.0736 17.7169 1 23.5 1M2.21154 16.1442H44.7885M2.29808 31.0288H44.7019" stroke="#0662AD" stroke-miterlimit="10" stroke-linecap="round"/>
</svg>
