<svg width="12" height="12" viewBox="0 0 12 12" fill="none" xmlns="http://www.w3.org/2000/svg">
<path d="M6 11C3.23858 11 1 8.76142 1 6C1 3.23858 3.23858 1 6 1C8.76142 1 11 3.23858 11 6C11 8.76142 8.76142 11 6 11Z" fill="#7FC6FF"/>
<path d="M1 6H3.77778M1 6C1 8.76142 3.23858 11 6 11M1 6C1 3.23858 3.23858 1 6 1M3.77778 6H8.22222M3.77778 6C3.77778 8.76142 4.7727 11 6 11M3.77778 6C3.77778 3.23858 4.7727 1 6 1M8.22222 6H11M8.22222 6C8.22222 3.23858 7.2273 1 6 1M8.22222 6C8.22222 8.76142 7.2273 11 6 11M11 6C11 3.23858 8.76142 1 6 1M11 6C11 8.76142 8.76142 11 6 11" stroke="#001836" stroke-width="0.75" stroke-linecap="round" stroke-linejoin="round"/>
</svg>
